<?xml version="1.0" encoding="UTF-8" standalone="no"?>
<!-- Created with Inkscape (http://www.inkscape.org/) -->

<svg
   width="33.931698mm"
   height="48.786327mm"
   viewBox="0 0 33.931698 48.786327"
   version="1.1"
   id="svg1"
   sodipodi:docname="pencil.svg"
   inkscape:version="1.3.2 (091e20ef0f, 2023-11-25, custom)"
   xmlns:inkscape="http://www.inkscape.org/namespaces/inkscape"
   xmlns:sodipodi="http://sodipodi.sourceforge.net/DTD/sodipodi-0.dtd"
   xmlns="http://www.w3.org/2000/svg"
   xmlns:svg="http://www.w3.org/2000/svg">
  <sodipodi:namedview
     id="namedview1"
     pagecolor="#ffffff"
     bordercolor="#000000"
     borderopacity="0.25"
     inkscape:showpageshadow="2"
     inkscape:pageopacity="0.0"
     inkscape:pagecheckerboard="0"
     inkscape:deskcolor="#d1d1d1"
     inkscape:document-units="mm"
     showgrid="true"
     inkscape:zoom="1.016756"
     inkscape:cx="91.959133"
     inkscape:cy="328.00397"
     inkscape:window-width="1264"
     inkscape:window-height="1011"
     inkscape:window-x="0"
     inkscape:window-y="0"
     inkscape:window-maximized="0"
     inkscape:current-layer="layer1">
    <inkscape:grid
       id="grid1"
       units="px"
       originx="-75.373522"
       originy="-39.267361"
       spacingx="0.26458334"
       spacingy="0.26458333"
       empcolor="#0099e5"
       empopacity="0.30196078"
       color="#0099e5"
       opacity="0.14901961"
       empspacing="5"
       dotted="false"
       gridanglex="30"
       gridanglez="30"
       visible="true" />
  </sodipodi:namedview>
  <defs
     id="defs1" />
  <g
     inkscape:label="Слой 1"
     inkscape:groupmode="layer"
     id="layer1"
     transform="translate(-75.373522,-39.267361)">
    <g
       id="g11"
       transform="translate(-32.67082,1.3646441)">
      <rect
         style="fill:#808080;fill-opacity:1;stroke:none;stroke-width:1;stroke-linecap:round;stroke-linejoin:round;stroke-dasharray:none;stroke-opacity:1;paint-order:fill markers stroke"
         id="rect7"
         width="13.229168"
         height="10.389695"
         x="131.08272"
         y="-39.487759"
         transform="rotate(45)" />
      <path
         style="fill:#3f3f3f;fill-opacity:1;stroke:#000000;stroke-width:1;stroke-linecap:round;stroke-linejoin:round;stroke-dasharray:none;stroke-opacity:1;paint-order:fill markers stroke"
         d="m 115.84078,84.131092 -7.29646,2.057975 2.05797,-7.29646 z"
         id="path7" />
      <path
         style="fill:none;fill-opacity:1;stroke:#000000;stroke-width:1;stroke-linecap:round;stroke-linejoin:round;stroke-dasharray:none;stroke-opacity:1;paint-order:fill markers stroke"
         d="m 112.28609,73.092859 -3.74177,13.096209 13.09621,-3.741774"
         id="path6"
         sodipodi:nodetypes="ccc" />
      <g
         id="g6"
         transform="rotate(45,50.175606,118.23069)"
         style="fill:none">
        <path
           style="fill:#ffffff;fill-opacity:1;stroke:none;stroke-width:0.921795;stroke-linecap:round;stroke-linejoin:round;stroke-dasharray:none;stroke-opacity:1;paint-order:fill markers stroke"
           id="path5"
           sodipodi:type="arc"
           sodipodi:cx="65.484383"
           sodipodi:cy="41.213074"
           sodipodi:rx="3.0427191"
           sodipodi:ry="2.6548522"
           sodipodi:start="3.1344302"
           sodipodi:end="6.2795007"
           sodipodi:arc-type="arc"
           d="m 62.441742,41.232089 a 3.0427191,2.6548522 0 0 1 1.50549,-2.310175 3.0427191,2.6548522 0 0 1 3.045728,-0.01441 3.0427191,2.6548522 0 0 1 1.534121,2.295791"
           sodipodi:open="true" />
        <path
           style="fill:#ffffff;fill-opacity:1;stroke:none;stroke-width:0.921796;stroke-linecap:round;stroke-linejoin:round;stroke-dasharray:none;stroke-opacity:1;paint-order:fill markers stroke"
           id="path5-5"
           sodipodi:type="arc"
           sodipodi:cx="72.098969"
           sodipodi:cy="41.213074"
           sodipodi:rx="3.0427201"
           sodipodi:ry="2.6548522"
           sodipodi:start="3.1344302"
           sodipodi:end="6.2795007"
           sodipodi:arc-type="arc"
           d="m 69.056326,41.232089 a 3.0427201,2.6548522 0 0 1 1.505491,-2.310175 3.0427201,2.6548522 0 0 1 3.04573,-0.01441 3.0427201,2.6548522 0 0 1 1.534121,2.295791"
           sodipodi:open="true" />
        <g
           id="g8">
          <path
             style="fill:none;fill-opacity:1;stroke:#000000;stroke-width:1;stroke-linecap:round;stroke-linejoin:round;stroke-dasharray:none;stroke-opacity:1;paint-order:fill markers stroke"
             d="M 62.177083,41.010416 V 30.427083 h 13.229169 v 10.583333"
             id="path3" />
        </g>
        <path
           style="fill:none;fill-opacity:1;stroke:#000000;stroke-width:0.899999;stroke-linecap:round;stroke-linejoin:round;stroke-dasharray:none;stroke-opacity:1;paint-order:fill markers stroke"
           d="m 68.791668,30.427083 -2e-6,10.514116"
           id="path4" />
      </g>
    </g>
    <path
       id="path3183"
       d="m 87.75401,65.656066 c 0.942024,-1.063717 0.968593,-2.638967 1.581298,-3.900154 0.631261,-0.96229 0.440177,-1.787593 -0.784576,-1.90913 -1.461732,-0.583864 -2.967435,-1.0621 -4.54054,-1.210002 -0.665053,-0.294712 -3.391072,-0.782177 -1.520439,-1.449052 0.411411,-1.354751 -1.787504,-1.999337 -2.349153,-2.991437 1.58261,-0.270832 1.537435,-1.780429 0.574777,-2.770379 -0.545691,-0.665321 -0.89386,-1.424027 0.306899,-1.14137 1.581824,-0.182386 0.794904,-2.461263 1.360138,-3.543356 0.244544,-1.458169 0.719831,-2.988892 0.193214,-4.44071 0.772672,-0.442378 2.254824,1.002307 3.167615,1.47432 1.440898,0.953242 2.43628,2.398762 3.457779,3.752344 1.059596,0.09029 1.597296,-1.801406 2.533397,-2.434089 0.81206,-0.451562 0.74748,-2.952267 1.61628,-1.245215 0.94128,1.530658 1.05129,-1.008895 2.07792,-1.331879 1.22276,-0.984666 2.57447,-1.814761 3.84587,-2.741928 0.65532,-0.57788 1.807831,-0.883491 0.995931,0.331043 -0.326421,1.605724 -0.0842,3.291004 0.27125,4.874093 0.37526,0.489944 1.40695,0.132127 0.77599,1.117665 -0.71583,1.349118 -0.15504,2.856208 -0.41885,4.299377 0.35274,1.134958 -1.591281,2.896337 -0.45097,3.416733 1.76655,-0.220575 3.56118,-0.284448 5.30376,0.148369 1.08212,0.36959 2.99726,0.172764 3.55362,0.704795 -0.92335,1.043502 -2.04545,1.914613 -2.95764,2.982663 -0.72162,1.006598 -2.18112,1.699061 -2.793,2.436607 0.72976,0.436239 1.33174,0.797246 0.10525,1.180658 -0.88678,0.499894 -3.09516,1.0995 -1.83828,2.387163 1.2241,1.310348 -1.62798,0.47103 -2.302941,0.703634 -1.85197,-0.495614 -1.17466,1.533323 -1.18327,2.110155 -2.34948,-0.878565 -4.43793,-2.346189 -6.20303,-4.111898 -0.84807,-0.621694 -2.103845,-2.629381 -2.383031,-0.476867 -0.568905,1.265218 -0.566757,2.801333 -1.332166,3.938868 -0.207807,0.02887 -0.529023,0.0275 -0.663102,-0.161019 z"
       style="fill:#7ba813;stroke-width:0.0794551"
       inkscape:connector-curvature="0" />
  </g>
</svg>
