<?xml version="1.0" encoding="UTF-8" standalone="no"?>
<!-- Created with Inkscape (http://www.inkscape.org/) -->

<svg
   width="27.888453mm"
   height="45.057316mm"
   viewBox="0 0 27.888452 45.057316"
   version="1.1"
   id="svg1"
   sodipodi:docname="AE-pencil.svg"
   inkscape:version="1.3.2 (091e20ef0f, 2023-11-25, custom)"
   xmlns:inkscape="http://www.inkscape.org/namespaces/inkscape"
   xmlns:sodipodi="http://sodipodi.sourceforge.net/DTD/sodipodi-0.dtd"
   xmlns="http://www.w3.org/2000/svg"
   xmlns:svg="http://www.w3.org/2000/svg">
  <sodipodi:namedview
     id="namedview1"
     pagecolor="#ffffff"
     bordercolor="#000000"
     borderopacity="0.25"
     inkscape:showpageshadow="2"
     inkscape:pageopacity="0.0"
     inkscape:pagecheckerboard="0"
     inkscape:deskcolor="#d1d1d1"
     inkscape:document-units="mm"
     showgrid="true"
     inkscape:zoom="2.8758202"
     inkscape:cx="-69.893104"
     inkscape:cy="106.92602"
     inkscape:window-width="1914"
     inkscape:window-height="1011"
     inkscape:window-x="0"
     inkscape:window-y="0"
     inkscape:window-maximized="0"
     inkscape:current-layer="layer1">
    <inkscape:grid
       id="grid1"
       units="px"
       originx="-75.37352"
       originy="-42.996373"
       spacingx="0.26458334"
       spacingy="0.26458333"
       empcolor="#0099e5"
       empopacity="0.30196078"
       color="#0099e5"
       opacity="0.14901961"
       empspacing="5"
       dotted="false"
       gridanglex="30"
       gridanglez="30"
       visible="true" />
  </sodipodi:namedview>
  <defs
     id="defs1" />
  <g
     inkscape:label="Слой 1"
     inkscape:groupmode="layer"
     id="layer1"
     transform="translate(-75.373522,-42.996372)">
    <g
       id="g1">
      <rect
         style="fill:none;fill-opacity:1;stroke:none;stroke-width:1;stroke-linecap:round;stroke-linejoin:round;stroke-dasharray:none;stroke-opacity:1;paint-order:fill markers stroke"
         id="rect7"
         width="13.229168"
         height="10.389695"
         x="108.94591"
         y="-15.421051"
         transform="rotate(45)" />
      <path
         style="fill:none;fill-opacity:1;stroke:#000000;stroke-width:1;stroke-linecap:round;stroke-linejoin:round;stroke-dasharray:none;stroke-opacity:1;paint-order:fill markers stroke"
         d="m 83.16996,85.495736 -7.29646,2.057975 2.05797,-7.29646 z"
         id="path7" />
      <path
         style="fill:none;fill-opacity:1;stroke:#000000;stroke-width:1;stroke-linecap:round;stroke-linejoin:round;stroke-dasharray:none;stroke-opacity:1;paint-order:fill markers stroke"
         d="M 79.61527,74.457503 75.8735,87.553712 88.96971,83.811938"
         id="path6"
         sodipodi:nodetypes="ccc" />
      <g
         id="g6"
         transform="rotate(45,32.192925,79.475844)"
         style="fill:none">
        <path
           style="fill:#ffffff;fill-opacity:1;stroke:none;stroke-width:0.921795;stroke-linecap:round;stroke-linejoin:round;stroke-dasharray:none;stroke-opacity:1;paint-order:fill markers stroke"
           id="path5"
           sodipodi:type="arc"
           sodipodi:cx="65.484383"
           sodipodi:cy="41.213074"
           sodipodi:rx="3.0427191"
           sodipodi:ry="2.6548522"
           sodipodi:start="3.1344302"
           sodipodi:end="6.2795007"
           sodipodi:arc-type="arc"
           d="m 62.441742,41.232089 a 3.0427191,2.6548522 0 0 1 1.50549,-2.310175 3.0427191,2.6548522 0 0 1 3.045728,-0.01441 3.0427191,2.6548522 0 0 1 1.534121,2.295791"
           sodipodi:open="true" />
        <path
           style="fill:#ffffff;fill-opacity:1;stroke:none;stroke-width:0.921796;stroke-linecap:round;stroke-linejoin:round;stroke-dasharray:none;stroke-opacity:1;paint-order:fill markers stroke"
           id="path5-5"
           sodipodi:type="arc"
           sodipodi:cx="72.098969"
           sodipodi:cy="41.213074"
           sodipodi:rx="3.0427201"
           sodipodi:ry="2.6548522"
           sodipodi:start="3.1344302"
           sodipodi:end="6.2795007"
           sodipodi:arc-type="arc"
           d="m 69.056326,41.232089 a 3.0427201,2.6548522 0 0 1 1.505491,-2.310175 3.0427201,2.6548522 0 0 1 3.04573,-0.01441 3.0427201,2.6548522 0 0 1 1.534121,2.295791"
           sodipodi:open="true" />
        <g
           id="g8">
          <path
             style="fill:none;fill-opacity:1;stroke:#000000;stroke-width:1;stroke-linecap:round;stroke-linejoin:round;stroke-dasharray:none;stroke-opacity:1;paint-order:fill markers stroke"
             d="M 62.177083,41.010416 V 30.427083 h 13.229169 v 10.583333"
             id="path3" />
        </g>
        <path
           style="fill:none;fill-opacity:1;stroke:#000000;stroke-width:0.899999;stroke-linecap:round;stroke-linejoin:round;stroke-dasharray:none;stroke-opacity:1;paint-order:fill markers stroke"
           d="m 68.791668,30.427083 -2e-6,10.514116"
           id="path4" />
      </g>
    </g>
    <path
       id="path3183"
       d="m 87.827716,66.006097 c 0.572839,-0.988593 0.342588,-2.234372 0.624382,-3.326087 0.344082,-0.859096 0.06187,-1.479093 -0.922802,-1.37958 -1.245178,-0.227086 -2.508168,-0.363909 -3.771604,-0.229624 -0.57116,-0.126227 -2.797421,-0.07573 -1.429412,-0.899624 0.108227,-1.13336 -1.727652,-1.290749 -2.328522,-1.983116 1.204155,-0.465825 0.927826,-1.648419 0.01124,-2.275146 -0.536184,-0.437359 -0.931581,-0.979817 0.05988,-0.948516 1.217641,-0.395991 0.23403,-2.066616 0.506976,-3.009607 -0.03978,-1.18826 0.09072,-2.470499 -0.555846,-3.530782 0.538444,-0.471875 1.936984,0.430414 2.731674,0.656878 1.287658,0.521533 2.30268,1.502101 3.323627,2.406043 0.849526,-0.0978 0.971661,-1.674497 1.608565,-2.322423 0.568022,-0.485394 0.118353,-2.446041 1.075315,-1.239159 0.985959,1.056297 0.6677,-0.962809 1.425339,-1.38108 0.806709,-0.971055 1.739697,-1.840845 2.593909,-2.774339 0.424343,-0.559958 1.283967,-0.984611 0.837735,0.102101 -0.0012,1.317612 0.458427,2.607251 0.991024,3.798291 0.373891,0.326311 1.129965,-0.120221 0.789827,0.757151 -0.34905,1.177464 0.333264,2.27586 0.355472,3.455369 0.458998,0.838276 -0.792317,2.536515 0.189407,2.764831 1.357143,-0.455546 2.761402,-0.792065 4.203838,-0.728814 0.91182,0.118736 2.38986,-0.341784 2.91321,-0.01118 -0.56135,0.969682 -1.30683,1.835187 -1.85547,2.822436 -0.40823,0.908428 -1.448117,1.686932 -1.812769,2.365805 0.644729,0.227456 1.176749,0.41599 0.271202,0.913767 -0.619213,0.535401 -2.264149,1.360138 -1.068191,2.174592 1.173731,0.837559 -1.207989,0.630849 -1.702868,0.921807 -1.538677,-0.0953 -0.681311,1.395811 -0.596114,1.851818 -1.991855,-0.317788 -3.87191,-1.141478 -5.544648,-2.251663 -0.767548,-0.354757 -2.077445,-1.736877 -1.954242,0.0042 -0.246628,1.087909 1.5e-5,2.298264 -0.421852,3.316873 -0.159178,0.05589 -0.412567,0.10603 -0.548303,-0.02117 z"
       style="fill:#00bb00;fill-opacity:1;stroke:#000000;stroke-width:0.402063;stroke-linecap:round;stroke-linejoin:round;stroke-dasharray:none;stroke-opacity:1"
       inkscape:connector-curvature="0" />
  </g>
</svg>
