<?xml version="1.0" encoding="UTF-8" standalone="no"?>
<!-- Created with Inkscape (http://www.inkscape.org/) -->

<svg
   version="1.1"
   id="svg1"
   width="744.44189"
   height="911.49133"
   viewBox="0 0 744.44188 911.49133"
   sodipodi:docname="SPbU_Arms_black.svg"
   inkscape:version="1.3.2 (091e20ef0f, 2023-11-25, custom)"
   xmlns:inkscape="http://www.inkscape.org/namespaces/inkscape"
   xmlns:sodipodi="http://sodipodi.sourceforge.net/DTD/sodipodi-0.dtd"
   xmlns="http://www.w3.org/2000/svg"
   xmlns:svg="http://www.w3.org/2000/svg">
  <defs
     id="defs1" />
  <sodipodi:namedview
     id="namedview1"
     pagecolor="#ffffff"
     bordercolor="#000000"
     borderopacity="0.25"
     inkscape:showpageshadow="2"
     inkscape:pageopacity="0.0"
     inkscape:pagecheckerboard="0"
     inkscape:deskcolor="#d1d1d1"
     inkscape:zoom="0.39337498"
     inkscape:cx="439.78394"
     inkscape:cy="652.0496"
     inkscape:window-width="1914"
     inkscape:window-height="1011"
     inkscape:window-x="0"
     inkscape:window-y="0"
     inkscape:window-maximized="0"
     inkscape:current-layer="g1">
    <inkscape:page
       x="0"
       y="0"
       inkscape:label="1"
       id="page1"
       width="744.44189"
       height="911.49133"
       margin="0"
       bleed="0" />
  </sodipodi:namedview>
  <g
     id="g1"
     inkscape:groupmode="layer"
     inkscape:label="1"
     transform="translate(-961.11281,-264.2547)">
    <g
       id="group-R5">
      <path
         id="path2"
         d="m 9407.44,7725.45 c 1.97,-4.81 3.94,-9.4 5.88,-13.52 35.11,-74.63 99.35,-146.81 99.35,-146.81 0,0 0.72,0.51 1.17,0.85 l 0.17,-0.19 c 0,0 9.25,6.98 28,17.59 6.34,3.58 13.74,7.57 22.26,11.85 20.34,10.15 46.7,21.83 79.45,33.41 77.43,27.36 180.43,35.96 180.43,35.96 0,0 -95.96,133.51 -114.04,326.38 -10.24,109.28 -6.01,166.65 -4.81,169.94 -6.49,0.41 -12.94,0.98 -19.53,0.98 -72.86,0 -139.7,-25.49 -192.36,-67.89 -1.31,-1.03 -2.64,-2.04 -3.93,-3.07 -67.71,-56.35 -110.86,-141.22 -110.86,-236.2 0,-26.47 3.7,-52.02 10,-76.53 4.98,-15.61 11.84,-35.71 18.82,-52.75"
         style="fill:#040606;fill-opacity:1;fill-rule:nonzero;stroke:none"
         transform="matrix(0.13333333,0,0,-0.13333333,0,1440)" />
      <path
         id="path3"
         d="m 11256.1,6789.9 c 31.4,-49.87 29.9,-112.26 29.9,-112.26 0.4,-0.13 63.4,-10.99 94.6,-42.12 0,0 4.8,4.79 5.5,5.67 42.6,52.42 121,138.25 143.6,262.88 18.4,101.49 6.5,243.69 -14.9,289.14 -0.8,1.64 -1.4,4.12 -2.2,5.5 20.3,23.61 53.9,78.28 146.9,78.28 34.1,0 64.5,-9.37 89.2,-21.09 40.8,-19.65 65.9,-45.52 65.9,-45.52 0,0 -80.2,-142.73 -122.1,-210.7 -21.5,-34.77 -37.2,-61.81 -80.3,-156.98 -36,-79.28 -45.6,-131.89 -39.4,-188.68 5.2,-47.72 30.5,-138.9 41.5,-230.51 20.9,-175.68 -13.7,-261.48 -13.7,-261.48 0,0 0.9,0.59 2.1,1.42 -0.3,-0.71 -0.8,-2.07 -0.8,-2.07 0,0 208.3,137.51 339.9,444.62 -0.5,0.1 -0.9,0.27 -1.4,0.37 0,0 0,0.19 0.1,0.29 -24.5,4.47 -43.9,11.21 -61.4,19.89 -17.3,8.78 -32.7,19.5 -49,31.94 -116.5,89.06 -90.3,183.79 -52.4,228.4 10.8,12.69 22,24.99 33.6,37.32 29.3,31.28 60.9,62.79 94.2,101.58 42,48.99 57.3,97.97 62.6,141.25 1.9,14.86 4,29.79 4,45.22 0,129.17 -62.7,217.14 -142.5,261.17 -26.5,14.82 -54.9,24.78 -83.6,29.74 -89.3,15.41 -198.6,-18.17 -278.5,-72.55 -30.4,-20.7 -80.6,-66.76 -94.6,-101.4 -17.5,-87.09 8.5,-109.19 34.9,-199.2 0.5,-1.8 1.7,-3.18 2.2,-5.04 54.7,-200.14 26.6,-297.02 -153.9,-335.08"
         style="fill:#040606;fill-opacity:1;fill-rule:nonzero;stroke:none"
         transform="matrix(0.13333333,0,0,-0.13333333,0,1440)" />
      <path
         id="path4"
         d="m 10362.1,6968.68 c 23.5,-49.95 66.5,-98.26 66.5,-98.26 0,0 0.4,0.26 0.5,0.34 0.2,-0.31 6.3,-6.44 6.3,-6.44 0,0 23.5,20.65 85.5,44.71 51.2,19.9 116.6,26.88 116.6,26.88 0,0 -64.2,89.35 -76.3,218.45 -7,74.76 -3.9,113.48 -3.2,114.08 -0.4,0.09 -0.9,0.04 -1.4,0.12 l 0.1,0.54 c -32.7,5.5 -66.5,-0.88 -97.6,-15.61 -21.5,-11.95 -40.5,-25.09 -56.4,-39.29 -27.7,-24.69 -46.3,-52.37 -53.5,-81.95 -11.3,-31.56 -15.4,-66.39 -8.6,-102.44 0.6,-3.11 11.7,-40.34 21.5,-61.13"
         style="fill:#040606;fill-opacity:1;fill-rule:nonzero;stroke:none"
         transform="matrix(0.13333333,0,0,-0.13333333,0,1440)" />
      <path
         id="path5"
         d="m 10647.2,7100.95 c 27.8,-77.4 73.8,-142.36 109.3,-155.97 5.5,-2.26 10.7,-3.68 15.6,-3.68 h 0.1 c 36.7,4.35 85.3,78.43 108.8,169.1 22.1,84.8 7.1,155.8 -30,185.85 -8.5,6.37 -17.8,11.79 -27.6,16.14 -1.6,0.71 -3.4,1 -5,1.66 18.5,16.44 31,39.99 31,66.57 0,41.15 -27.1,74.67 -64.3,85.4 v 36.16 h 61.6 v 49.65 h -61.6 v 78.58 h -50.1 v -78.58 h -61.7 v -49.65 h 61.7 v -36.16 c -37.1,-10.73 -63.8,-44.25 -63.8,-85.4 0,-26.27 11.5,-49.59 29.9,-66.01 -14.9,-6.48 -28.5,-15.18 -40.3,-25.77 -34.5,-33.16 -43.2,-105.2 -13.6,-187.89"
         style="fill:#040606;fill-opacity:1;fill-rule:nonzero;stroke:none"
         transform="matrix(0.13333333,0,0,-0.13333333,0,1440)" />
      <path
         id="path6"
         d="m 10898.1,6942.82 c 0,0 109.5,-0.82 218.9,-43.54 1.9,-0.76 3.3,-1.81 5.1,-2.7 14.6,18.69 35.9,48.13 50.1,78.36 9.8,20.78 21,58.02 21.5,61.12 6.8,36.06 2.8,70.89 -8.6,102.45 -7.2,29.58 -25.8,57.26 -53.5,81.94 -15.9,14.2 -34.9,27.35 -56.3,39.3 -0.3,0.11 -0.6,0.18 -0.8,0.3 -0.2,0.11 -0.4,0.24 -0.6,0.35 -31.1,14.73 -64.9,21.12 -97.6,15.61 0.7,-0.6 3.8,-39.33 -3.2,-114.09 -12.1,-129.1 -76.3,-218.45 -76.3,-218.45 0,0 1,-0.1 1.7,-0.15 l -0.4,-0.5"
         style="fill:#040606;fill-opacity:1;fill-rule:nonzero;stroke:none"
         transform="matrix(0.13333333,0,0,-0.13333333,0,1440)" />
      <path
         id="path7"
         d="m 10184.6,7664.59 c 0,0 103,-8.6 180.4,-35.96 32.8,-11.58 59.2,-23.26 79.5,-33.41 8.5,-4.28 15.9,-8.27 22.3,-11.85 18.7,-10.61 28,-17.59 28,-17.59 l 0.1,0.19 c 0.5,-0.34 1.2,-0.85 1.2,-0.85 0,0 64.2,72.18 99.3,146.81 2,4.12 4,8.71 5.9,13.52 7,17.04 13.9,37.14 18.8,52.75 6.3,24.51 10,50.06 10,76.53 0,94.98 -43.1,179.85 -110.8,236.2 -1.3,1.03 -2.6,2.04 -3.9,3.07 -52.7,42.4 -119.5,67.89 -192.4,67.89 -6.6,0 -13,-0.57 -19.5,-0.98 1.2,-3.29 5.4,-60.66 -4.8,-169.94 -18.1,-192.87 -114.1,-326.38 -114.1,-326.38"
         style="fill:#040606;fill-opacity:1;fill-rule:nonzero;stroke:none"
         transform="matrix(0.13333333,0,0,-0.13333333,0,1440)" />
      <path
         id="path8"
         d="m 10252.6,7368 c 0,0 12,-60.18 19.3,-87.14 0.4,0.1 7.4,-0.34 7.4,-0.66 45.8,18.4 135.7,45.28 135.7,75.32 v 76.15 19.88 c 0,17.4 -17.6,33.77 -48.7,48.04 -63.3,29.59 -182.1,50.08 -317.1,52.6 l -78.38,0.22 c -139.34,-1.47 -264.4,-22.35 -329.61,-52.82 -31.09,-14.27 -49.22,-30.64 -49.22,-48.04 v -19.88 -76.15 c 0,-30.04 90.78,-56.92 136.56,-75.32 0,0.32 7.34,0.76 7.78,0.66 7.24,26.96 19.52,87.14 19.52,87.14 0,0 -9.82,3.97 -11.68,7.98 -5.59,12.05 4.58,18.99 21.55,28.51 16.88,9.24 44.78,14.76 68.46,15.69 14.4,-52.74 16.48,-135.43 13.39,-206.39 -6.23,-142.43 -33.18,-321.18 -117.54,-442.81 32.12,-31.1 67.46,-71.53 103.74,-123.34 87.48,167.81 101.29,351.36 108.6,540.44 3.25,83.27 -0.11,180.73 0.01,247.37 8.16,0.12 35.22,3.38 62.22,3.38 26.9,0 53.7,-3.26 61.8,-3.38 0.1,-66.64 -3.3,-164.1 0,-247.37 7.4,-192.46 21.2,-379.27 112.9,-549.5 33.3,48.62 66,87.77 96.2,118.66 2.1,3 4,5.81 6.3,8.86 -87,121.68 -114.3,303.43 -120.6,447.69 -3.1,70.96 -1,153.65 13.4,206.39 23.6,-0.93 51.5,-6.45 68.4,-15.69 16.9,-9.52 27.1,-16.46 21.5,-28.51 -1.9,-4.01 -11.9,-7.98 -11.9,-7.98"
         style="fill:#040606;fill-opacity:1;fill-rule:nonzero;stroke:none"
         transform="matrix(0.13333333,0,0,-0.13333333,0,1440)" />
      <path
         id="path9"
         d="m 11432.2,6023.85 c -0.5,0.12 -0.8,0.56 -1.3,0.64 -1.3,0.22 -2.6,0.56 -4,0.44 l -2.2,-0.18 c -5.1,-0.46 -9.7,-0.97 -14.4,-1.47 -50,-3.08 -98.7,0.65 -138.9,16.36 -22.8,7.5 -42.4,20.36 -61.4,33.87 -4.5,3.64 -55.4,48.64 -64.6,57.18 -36.8,34.51 -106.5,85.09 -178.6,92.23 -81.2,8.04 -133,-21.67 -191.2,-44.62 -5.4,-2.19 -9.7,-7.45 -10,-13.69 -0.4,-6.81 3.5,-12.78 9.5,-15.37 2,-1.13 4.2,-1.94 6.6,-2.08 57.7,-4.15 112.6,-13.96 164.6,-29.29 38.7,-11.66 77,-24.1 107.3,-45.66 39.9,-28.36 74.3,-64.39 97.2,-78.91 29.7,-18.85 56.1,-37.05 90.2,-43.87 35.9,-6.06 73.2,-3.59 108.1,5.52 1.6,0.41 3.1,0.94 4.7,1.37 9.3,2.3 18.1,5.82 27.1,9.18 12.1,4.84 23.9,10.29 34.9,16.74 0.5,0.26 0.9,0.54 1.4,0.81 7.1,4.2 14.7,7.67 21.3,12.63 0.2,0.15 0.5,0.23 0.7,0.38 4.1,3.19 6.6,8.39 6.1,13.99 -0.6,7.24 -6.2,12.61 -13,13.78 -0.1,0.01 -0.1,0.01 -0.1,0.02"
         style="fill:#040606;fill-opacity:1;fill-rule:nonzero;stroke:none"
         transform="matrix(0.13333333,0,0,-0.13333333,0,1440)" />
      <path
         id="path10"
         d="m 11209.1,6560.21 c 3.7,-11.53 15.9,-23.71 29.7,-31.73 43.4,-25.19 58.8,-62.14 -6.1,-69.83 -47.4,-5.61 -96.7,25.93 -271.7,-22.1 -102.6,-28.18 -223.5,-131.76 -265.5,-179.46 -13,-14.78 -26.4,-31.88 -38.9,-49.91 -40.6,-58.61 -40.1,-137.48 3.7,-193.67 26.2,-33.45 55.3,-55.18 63.9,-60.95 153.6,-104.04 297.7,-17.86 313.4,-2.15 12.6,12.57 13.4,17.58 11,20.82 -0.3,0.4 -0.8,0.3 -1.1,0.6 -0.1,-0.04 -0.2,-0.07 -0.3,-0.12 0,0.04 0.1,0.15 0,0.18 -0.2,0.39 -48.8,-25.78 -116.9,-25.78 -38.6,0 -78.2,6.79 -111,21.52 -24,10.96 -79.6,40.64 -112.3,93.12 -21.3,34.02 -16.8,77.92 8.8,108.71 25.8,30.93 57.1,60.1 86.4,81.64 65.9,48.49 141.6,77.74 229.4,79.09 2.1,0.03 4.1,0.26 6.3,0.26 44.2,0 86.4,-7.68 126.2,-20.74 20.1,-6.59 39.5,-14.73 58.1,-24.18 56.3,-28.86 105.1,-70.24 142.3,-120.86 0.1,0.16 0.2,0.38 0.3,0.55 0.3,-0.43 0.8,-0.78 1.1,-1.21 14.3,24.43 30.5,61.08 44.2,112.37 2.4,9.05 4.8,18.25 7.1,28.22 19.5,86.03 13.8,285.83 -176.2,285.83 -3.5,0 -7,-1.57 -10.5,-2.38 -20.2,-5.42 -25.1,-16.3 -21.4,-27.84"
         style="fill:#040606;fill-opacity:1;fill-rule:nonzero;stroke:none"
         transform="matrix(0.13333333,0,0,-0.13333333,0,1440)" />
      <path
         id="path11"
         d="m 8086.67,7025.79 c 33.29,-38.79 64.91,-70.3 94.22,-101.58 11.55,-12.33 22.75,-24.63 33.54,-37.32 37.92,-44.61 64.15,-139.34 -52.38,-228.4 -16.28,-12.44 -31.65,-23.16 -49,-31.94 -17.43,-8.68 -36.88,-15.42 -61.36,-19.89 0.04,-0.1 0.13,-0.29 0.13,-0.29 -0.54,-0.1 -0.93,-0.27 -1.47,-0.37 131.64,-307.11 339.9,-444.62 339.9,-444.62 0,0 -0.48,1.36 -0.75,2.07 1.21,-0.83 2.08,-1.42 2.08,-1.42 0,0 -34.64,85.8 -13.66,261.48 10.94,91.61 36.24,182.79 41.47,230.51 6.23,56.79 -3.47,109.4 -39.42,188.68 -43.15,95.17 -58.79,122.21 -80.27,156.98 -41.97,67.97 -122.1,210.7 -122.1,210.7 0,0 25.04,25.87 65.86,45.52 24.73,11.72 55.12,21.09 89.25,21.09 93,0 126.58,-54.67 146.9,-78.28 -0.79,-1.38 -1.48,-3.86 -2.25,-5.5 -21.43,-45.45 -33.33,-187.65 -14.92,-289.14 22.61,-124.63 101.03,-210.46 143.6,-262.88 0.72,-0.88 5.57,-5.67 5.57,-5.67 31.14,31.13 94.16,41.99 94.6,42.12 0,0 -1.54,62.39 29.92,112.26 -180.57,38.06 -208.68,134.94 -153.93,335.08 0.51,1.86 1.64,3.24 2.17,5.04 26.44,90.01 52.42,112.11 34.93,199.2 -14.01,34.64 -64.23,80.7 -94.62,101.4 -79.86,54.38 -189.17,87.96 -278.47,72.55 -28.71,-4.96 -57.11,-14.92 -83.62,-29.74 -79.84,-44.03 -142.49,-132 -142.49,-261.17 0,-15.43 2.09,-30.36 3.93,-45.22 5.33,-43.28 20.6,-92.26 62.64,-141.25"
         style="fill:#040606;fill-opacity:1;fill-rule:nonzero;stroke:none"
         transform="matrix(0.13333333,0,0,-0.13333333,0,1440)" />
      <path
         id="path12"
         d="m 9354.65,6935.91 c 0,0 65.39,-6.98 116.63,-26.88 61.96,-24.06 85.51,-44.71 85.51,-44.71 0,0 6.04,6.13 6.31,6.44 0.11,-0.08 0.47,-0.34 0.47,-0.34 0,0 43,48.31 66.5,98.26 9.78,20.79 20.94,58.02 21.52,61.13 6.75,36.05 2.72,70.88 -8.66,102.44 -7.18,29.58 -25.76,57.26 -53.46,81.95 -15.93,14.2 -34.87,27.34 -56.36,39.29 -31.1,14.73 -64.91,21.11 -97.64,15.61 l 0.1,-0.54 c -0.48,-0.08 -0.96,-0.03 -1.43,-0.12 0.72,-0.6 3.84,-39.32 -3.17,-114.08 -12.1,-129.1 -76.32,-218.45 -76.32,-218.45"
         style="fill:#040606;fill-opacity:1;fill-rule:nonzero;stroke:none"
         transform="matrix(0.13333333,0,0,-0.13333333,0,1440)" />
      <path
         id="path13"
         d="m 9220.01,6941.3 h 0.04 c 4.88,0 10.13,1.42 15.58,3.68 35.57,13.61 81.54,78.57 109.35,155.97 29.56,82.69 20.93,154.73 -13.59,187.89 -11.96,10.74 -26.28,18.68 -41.52,25.08 18.57,16.44 31.12,40.05 31.12,66.7 0,41.15 -27.1,74.67 -64.32,85.4 v 36.16 h 61.6 v 49.65 h -61.6 v 78.58 h -50.05 v -78.58 h -61.66 v -49.65 h 61.66 v -36.16 c -37.08,-10.73 -63.83,-44.25 -63.83,-85.4 0,-26.63 11.88,-50.23 30.67,-66.67 -1.5,-0.63 -3.19,-0.89 -4.67,-1.56 -9.84,-4.35 -19.12,-9.77 -27.61,-16.14 -37.12,-30.05 -52.09,-101.05 -30.05,-185.85 23.53,-90.67 72.17,-164.75 108.88,-169.1"
         style="fill:#040606;fill-opacity:1;fill-rule:nonzero;stroke:none"
         transform="matrix(0.13333333,0,0,-0.13333333,0,1440)" />
      <path
         id="path14"
         d="m 8819.96,6974.94 c 14.22,-30.23 35.47,-59.67 50.13,-78.36 1.79,0.89 3.15,1.94 5.1,2.7 109.37,42.72 218.86,43.54 218.86,43.54 l -0.35,0.5 c 0.63,0.05 1.68,0.15 1.68,0.15 0,0 -64.23,89.35 -76.33,218.45 -7.01,74.76 -3.88,113.49 -3.16,114.09 -32.73,5.51 -66.55,-0.88 -97.64,-15.61 -0.2,-0.11 -0.36,-0.24 -0.56,-0.35 -0.25,-0.12 -0.51,-0.19 -0.77,-0.3 -21.5,-11.95 -40.43,-25.1 -56.37,-39.3 -27.69,-24.68 -46.28,-52.36 -53.46,-81.94 -11.37,-31.56 -15.41,-66.39 -8.65,-102.45 0.58,-3.1 11.74,-40.34 21.52,-61.12"
         style="fill:#040606;fill-opacity:1;fill-rule:nonzero;stroke:none"
         transform="matrix(0.13333333,0,0,-0.13333333,0,1440)" />
      <path
         id="path15"
         d="m 9210.43,6147.16 c 2.46,0.14 4.68,0.95 6.69,2.08 5.9,2.59 9.88,8.56 9.5,15.37 -0.4,6.24 -4.61,11.5 -10.03,13.69 -58.25,22.95 -110.06,52.66 -191.27,44.62 -72.04,-7.14 -141.71,-57.72 -178.58,-92.23 -9.13,-8.54 -60.09,-53.54 -64.52,-57.18 -19.06,-13.51 -38.7,-26.37 -61.47,-33.87 -40.22,-15.71 -88.84,-19.44 -138.9,-16.36 -4.67,0.5 -9.3,1.01 -14.35,1.47 l -2.23,0.18 c -1.4,0.12 -2.69,-0.22 -4.02,-0.44 -0.48,-0.08 -0.77,-0.52 -1.23,-0.64 -0.04,-0.01 -0.07,-0.01 -0.11,-0.02 -6.85,-1.17 -12.42,-6.54 -13.02,-13.78 -0.54,-5.6 1.96,-10.8 6.13,-13.99 0.2,-0.15 0.43,-0.23 0.64,-0.38 6.65,-4.96 14.19,-8.43 21.32,-12.63 0.46,-0.27 0.91,-0.55 1.37,-0.81 10.99,-6.45 22.79,-11.9 34.95,-16.74 8.92,-3.36 17.78,-6.88 27.12,-9.18 1.55,-0.43 3.06,-0.96 4.62,-1.37 34.98,-9.11 72.27,-11.58 108.14,-5.52 34.1,6.82 60.45,25.02 90.18,43.87 22.92,14.52 57.33,50.55 97.21,78.91 30.3,21.56 68.64,34 107.26,45.66 52.08,15.33 106.98,25.14 164.6,29.29"
         style="fill:#040606;fill-opacity:1;fill-rule:nonzero;stroke:none"
         transform="matrix(0.13333333,0,0,-0.13333333,0,1440)" />
      <path
         id="path16"
         d="m 8574.98,6304.6 c 2.25,-9.97 4.65,-19.17 7.06,-28.22 13.74,-51.29 29.9,-87.94 44.26,-112.37 0.31,0.43 0.72,0.78 1.04,1.21 0.09,-0.17 0.19,-0.39 0.29,-0.55 37.27,50.62 86.05,92 142.35,120.86 18.6,9.45 37.99,17.59 58.08,24.18 39.8,13.06 82.05,20.74 126.25,20.74 2.11,0 4.18,-0.23 6.29,-0.26 87.8,-1.35 163.47,-30.6 229.41,-79.09 29.3,-21.54 60.53,-50.71 86.31,-81.64 25.67,-30.79 30.11,-74.69 8.89,-108.71 -32.73,-52.48 -88.32,-82.16 -112.38,-93.12 -32.8,-14.73 -72.34,-21.52 -110.95,-21.52 -68.15,0 -116.66,26.17 -116.95,25.78 -0.02,-0.03 0.05,-0.14 0.03,-0.18 -0.09,0.05 -0.2,0.08 -0.29,0.12 -0.32,-0.3 -0.78,-0.2 -1.07,-0.6 -2.44,-3.24 -1.62,-8.25 10.94,-20.82 15.71,-15.71 159.87,-101.89 313.47,2.15 8.52,5.77 37.69,27.5 63.82,60.95 43.88,56.19 44.31,135.06 3.72,193.67 -12.49,18.03 -25.86,35.13 -38.88,49.91 -42.01,47.7 -162.9,151.28 -265.54,179.46 -174.94,48.03 -224.28,16.49 -271.62,22.1 -64.96,7.69 -49.56,44.64 -6.11,69.83 13.78,8.02 25.97,20.2 29.65,31.73 3.69,11.54 -1.13,22.42 -21.38,27.84 -3.48,0.81 -7.01,2.38 -10.51,2.38 -189.97,0 -195.64,-199.8 -176.18,-285.83"
         style="fill:#040606;fill-opacity:1;fill-rule:nonzero;stroke:none"
         transform="matrix(0.13333333,0,0,-0.13333333,0,1440)" />
      <path
         id="path17"
         d="m 10886.4,3374.02 0.3,-2.1 c 0.4,0.05 0.7,-0.04 1.1,0.01 -0.6,0.72 -0.9,1.37 -1.4,2.09"
         style="fill:#040606;fill-opacity:1;fill-rule:nonzero;stroke:none"
         transform="matrix(0.13333333,0,0,-0.13333333,0,1440)" />
      <path
         id="path18"
         d="m 10104,5310.81 c 6.4,-12.61 31.2,-32.63 36.6,-71.24 0.6,-4.13 95.8,101.01 95.8,101.01 v 101.09 l -101.6,-42.88 -30.8,-87.98"
         style="fill:#040606;fill-opacity:1;fill-rule:nonzero;stroke:none"
         transform="matrix(0.13333333,0,0,-0.13333333,0,1440)" />
      <path
         id="path19"
         d="m 9483.42,2659.58 c 46.09,12.3 87.94,26.47 132.52,43.56 21.98,8.6 44.08,18.2 65.95,29.36 22.13,11.22 44.03,24.01 65.31,39.02 21.02,14.67 40.42,33.22 57.01,54.15 8.45,10.37 15.21,21.82 21.24,34.07 2.86,6.44 6.03,13.15 8.13,19.14 l 4.12,16.63 0.18,0.58 c 2.99,12.03 -4.3,24.23 -16.32,27.23 -4.68,1.18 -9.24,0.54 -13.41,-1.08 -4.03,-1.26 -7.67,-3.54 -10.42,-6.77 -13.92,-16.32 -28.83,-27.61 -44.89,-36.3 -15.86,-8.4 -32.8,-14.39 -51.07,-20.1 -37.1,-10.77 -77.92,-16.41 -119.68,-21.78 -41.23,-5.27 -86.03,-9.87 -126.94,-13.9 -41.05,-3.71 -82.85,-5.77 -125.28,-7.29 l -131.41,-4.29 c -45.65,-2.41 -93.18,-4.79 -147.73,-17.35 -20.67,-4.99 -43.07,-11.2 -65.99,-22.03 -7.7,-3.58 -15.46,-7.66 -23.24,-12.43 -29.82,-18.59 -59.65,-48.86 -74.27,-84.05 -15.33,-35.01 -17.12,-70.02 -11.13,-99.53 6.84,-29.78 18.96,-55.44 40.28,-77.71 8.55,-8.89 21.36,-10.91 32.09,-6.35 3.66,1.33 13.02,9.42 13.02,9.42 37.84,61.17 118.89,93.96 134.68,97.76 65.46,15.24 159.04,19.36 249.13,32.64 45.79,6.66 91.93,15.28 138.12,27.4"
         style="fill:#040606;fill-opacity:1;fill-rule:nonzero;stroke:none"
         transform="matrix(0.13333333,0,0,-0.13333333,0,1440)" />
      <path
         id="path20"
         d="m 9071.26,2912.61 c -0.84,-12.12 8.32,-22.54 20.44,-23.39 5.09,-0.31 9.88,1.08 13.77,3.76 l 0.72,0.48 c 0.18,0.12 0.44,0.05 0.44,0.05 l 7.14,4.82 c 10.46,7.07 20.97,12.88 31.53,17.76 32.35,14.71 65.02,20.02 97.12,20.75 44.17,1.29 89.02,-4.07 140.66,-13.28 55.67,-10.01 118.49,-14.57 179.42,-9.61 30.86,2.28 62.11,8.22 93.85,16.81 15.83,5.32 31.98,10.64 48.29,19.23 0.15,0.08 0.32,0.18 0.32,0.18 0.44,0.23 0.72,0.32 1.01,0.47 15.03,8.54 36.09,19.36 46.68,42.61 4.12,9.03 0.1,19.67 -8.94,23.79 -1.34,0.62 -2.77,1.11 -4.15,1.34 0,0 -61.88,11.62 -87.06,18.87 l -78.64,20.2 c -53.93,13.2 -105.25,24.64 -162.97,34.43 -61.35,10.55 -134.23,10.11 -202.15,-16.36 -8.56,-3.32 -17.04,-7.18 -25.37,-11.51 -57.8,-29.69 -107.54,-83.27 -112.11,-151.4"
         style="fill:#040606;fill-opacity:1;fill-rule:nonzero;stroke:none"
         transform="matrix(0.13333333,0,0,-0.13333333,0,1440)" />
      <path
         id="path21"
         d="m 9159.95,3130.16 c 2.81,0.7 38.94,13.66 56,19.34 0,0 -0.39,0.12 -0.44,0.13 0.63,0.21 -212.53,77.19 -91.57,214.54 l 0.52,5.31 c -0.39,-0.49 -0.66,0.99 -0.97,0.52 -20.3,2.62 -40.95,0.84 -59.85,-6.97 -19.01,-7.57 -35.76,-20.11 -49.56,-37.21 -57.9,-71.82 21.52,-149.73 23.65,-151.22 -11.88,0.86 -40.38,5.14 -52.22,6.44 -51.51,35.21 -136.95,122.03 -14.42,305.73 -3.11,0.42 -6.21,0.58 -9.32,0.73 -17.68,0.84 -35.09,-2.53 -51.35,-9.7 -9.52,-3.12 -18.66,-6.92 -27.42,-11.27 -60.3,-29.39 -101.45,-86.43 -101.45,-152.59 0,-27 7.38,-52.24 19.53,-75.05 8.82,-16.56 20.71,-31.41 34.57,-44.53 -9.07,0.78 -48.14,3.2 -57.43,5.95 -56.14,64.55 -118.16,185.34 1.51,326.68 -3.11,0.41 -6.21,0.55 -9.32,0.7 -17.67,0.84 -35.08,-2.54 -51.35,-9.72 -10.79,-3.92 -20.87,-8.7 -30.27,-14.17 -66.26,-37.83 -98.6,-110.26 -98.6,-170 0,-26.99 9.76,-70.98 19.54,-94.91 78.58,-192.35 449.84,-134.03 550.22,-108.73"
         style="fill:#040606;fill-opacity:1;fill-rule:nonzero;stroke:none"
         transform="matrix(0.13333333,0,0,-0.13333333,0,1440)" />
      <path
         id="path22"
         d="m 11047.9,2760 c -7.8,4.77 -15.6,8.85 -23.3,12.43 -22.9,10.83 -45.3,17.04 -66,22.03 -54.5,12.56 -102,14.94 -147.7,17.35 l -131.4,4.29 c -42.4,1.52 -84.2,3.58 -125.3,7.29 -40.9,4.03 -85.7,8.63 -126.9,13.9 -41.8,5.37 -82.6,11.01 -119.7,21.78 -18.3,5.71 -35.2,11.7 -51.1,20.1 -16,8.69 -30.9,19.98 -44.9,36.3 -2.7,3.23 -6.3,5.51 -10.4,6.77 -4.1,1.62 -8.7,2.26 -13.4,1.08 -12,-3 -19.3,-15.2 -16.3,-27.23 l 0.2,-0.58 4.1,-16.63 c 2.1,-5.99 5.3,-12.7 8.1,-19.14 6.1,-12.25 12.8,-23.7 21.3,-34.07 16.6,-20.93 36,-39.48 57,-54.15 21.3,-15.01 43.2,-27.8 65.3,-39.02 21.9,-11.16 44,-20.76 65.9,-29.36 44.6,-17.09 86.5,-31.26 132.6,-43.56 46.2,-12.12 92.3,-20.74 138.1,-27.4 90.1,-13.28 183.7,-17.4 249.1,-32.64 15.8,-3.8 96.8,-36.59 134.7,-97.76 0,0 9.3,-8.09 13,-9.42 10.7,-4.56 23.6,-2.54 32.1,6.35 21.3,22.27 33.4,47.93 40.3,77.71 6,29.51 4.2,64.52 -11.2,99.53 -14.6,35.19 -44.4,65.46 -74.2,84.05"
         style="fill:#040606;fill-opacity:1;fill-rule:nonzero;stroke:none"
         transform="matrix(0.13333333,0,0,-0.13333333,0,1440)" />
      <path
         id="path23"
         d="m 10303.4,2950.64 c 0.3,-0.15 0.6,-0.24 0.9,-0.39 0.1,-0.08 0.3,-0.18 0.3,-0.18 16.5,-8.67 32.6,-13.99 48.4,-19.31 31.8,-8.59 63,-14.53 93.9,-16.81 60.9,-4.96 123.7,-0.4 179.4,9.61 51.6,9.21 96.5,14.57 140.7,13.28 32.1,-0.73 64.7,-6.04 97.1,-20.75 10.5,-4.88 21.1,-10.69 31.5,-17.76 l 7,-4.7 c 0.2,-0.12 0.4,-0.05 0.4,-0.05 l 0.9,-0.6 c 3.9,-2.68 8.7,-4.07 13.8,-3.76 12.1,0.85 21.3,11.27 20.4,23.39 -4.5,68.13 -54.3,121.71 -112.1,151.4 -8.3,4.33 -16.8,8.19 -25.4,11.51 -67.9,26.47 -140.8,26.91 -202.1,16.36 -57.7,-9.79 -109.1,-21.23 -163,-34.43 l -78.6,-20.2 c -25.2,-7.25 -87.1,-18.87 -87.1,-18.87 -1.4,-0.23 -2.8,-0.72 -4.1,-1.34 -9.1,-4.12 -13.1,-14.76 -9,-23.79 10.6,-23.25 31.7,-34.07 46.7,-42.61"
         style="fill:#040606;fill-opacity:1;fill-rule:nonzero;stroke:none"
         transform="matrix(0.13333333,0,0,-0.13333333,0,1440)" />
      <path
         id="path24"
         d="m 11320.6,3503.8 c -9.4,5.47 -19.5,10.25 -30.3,14.17 -16.2,7.18 -33.7,10.56 -51.3,9.72 -3.1,-0.15 -6.2,-0.29 -9.4,-0.7 119.7,-141.34 57.7,-262.13 1.6,-326.68 -9.3,-2.75 -48.4,-5.17 -57.5,-5.95 13.9,13.12 25.8,27.97 34.6,44.53 12.1,22.81 19.5,48.05 19.5,75.05 0,66.16 -41.1,123.2 -101.4,152.59 -8.8,4.35 -17.9,8.15 -27.4,11.27 -16.3,7.17 -33.7,10.54 -51.4,9.7 -3.1,-0.15 -6.2,-0.31 -9.3,-0.73 122.5,-183.7 37.1,-270.52 -14.4,-305.73 -11.9,-1.3 -40.4,-5.58 -52.3,-6.44 2.2,1.49 81.6,79.4 23.7,151.22 -13.8,17.1 -30.6,29.64 -49.6,37.21 -18.9,7.81 -39.5,9.59 -59.8,6.97 -0.3,0.47 -0.6,-1.01 -1,-0.52 l 0.5,-5.31 c 121,-137.35 -92.2,-214.33 -91.5,-214.54 l -0.5,-0.13 c 17.1,-5.68 53.2,-18.64 56,-19.34 100.4,-25.3 471.7,-83.62 550.3,108.73 9.7,23.93 19.5,67.92 19.5,94.91 0,59.74 -32.4,132.17 -98.6,170"
         style="fill:#040606;fill-opacity:1;fill-rule:nonzero;stroke:none"
         transform="matrix(0.13333333,0,0,-0.13333333,0,1440)" />
      <path
         id="path25"
         d="m 10165.1,4366.72 c 39.1,148.67 99.8,229.76 99.8,229.76 34.8,50.58 73.8,88.03 113.6,108 32,18.21 72.6,20.1 113,2.06 20.7,-9.25 38.9,-23.77 52.8,-41.72 0.1,-0.09 0.1,-0.18 0.2,-0.27 2.6,-4.08 4.4,-6.97 6.6,-10.57 2.7,-5.05 5.4,-10.07 8.1,-15.41 13.7,-27.72 23.1,-56.76 30.4,-90.29 0.8,-3.94 1.5,-8.11 2.1,-12.1 14.4,-102.27 13.7,-117.04 12.9,-224.51 -0.1,-6.07 -2.9,-46.63 -3.6,-52.65 -5,-40.35 -21.1,-124.59 -68.2,-238.23 -14.1,-44.15 -46.4,-84.56 -45.4,-85.25 -55.5,-94.14 -141.7,-149.82 -200.7,-142.92 -44.3,5.19 -69,30.23 -83.8,46.9 -41.1,46.59 -44.4,72.11 -51,92.98 -13.9,44.34 -11.7,66.77 -13.9,89.84 -10.8,115.66 2,200.73 14.4,278.35 1.7,10.47 7,36.5 10.5,53.45 0,0 1,5.68 2.2,11.31 m 463.5,335.77 c -38.6,70.34 -92.3,116.47 -157.6,126.54 -35.1,5.43 -70.9,-0.38 -106,-15.17 -0.3,0.34 -6.8,-2.97 -6.8,-2.97 -26.4,-12.02 -52.3,-28.95 -77.3,-50.73 -102,-88.86 -188.7,-253.6 -224.7,-450.3 -34.5,-188.02 -14.5,-361.96 43.9,-477.08 38.8,-76.65 94.5,-127.48 163.2,-138.07 67.5,-10.42 137,19.6 200.2,78.35 97.6,90.75 179.8,250.67 214.7,440.81 35.5,194.25 13.3,373.81 -49.6,488.62"
         style="fill:#040606;fill-opacity:1;fill-rule:nonzero;stroke:none"
         transform="matrix(0.13333333,0,0,-0.13333333,0,1440)" />
      <path
         id="path26"
         d="m 10172.9,4369.45 c 1,4.59 1.8,8.51 2.4,11.27"
         style="fill:#040606;fill-opacity:1;fill-rule:nonzero;stroke:none"
         transform="matrix(0.13333333,0,0,-0.13333333,0,1440)" />
      <path
         id="path27"
         d="m 10264.9,4590.32 c 4.5,6.86 9,13.52 13.5,19.95"
         style="fill:#040606;fill-opacity:1;fill-rule:nonzero;stroke:none"
         transform="matrix(0.13333333,0,0,-0.13333333,0,1440)" />
      <path
         id="path28"
         d="m 9914.36,4520.33 c 0,0 -164.75,-62.37 -243.25,-94.13 l 160.53,278.28 c 0.37,-1.37 7.56,-39.02 72.84,-66.42 -2.03,-9.93 9.88,-117.73 9.88,-117.73 z m 87.04,-1226.74 c -1.1,0 -2.21,0.13 -3.31,0.14 -285.34,1.46 -537.54,193.12 -690.09,484.76 71.06,119.9 218.01,381.55 218.01,381.55 13.87,-53.59 95.77,-408.4 95.77,-408.4 0,0 -103.59,-44.7 -51.22,-76.67 52.32,-32.04 163.65,-8.35 163.65,-8.35 0,0 28.26,-25.53 58.85,-46.95 36.29,-27.33 77.38,-47.54 121.62,-59.36 16.8,-6.49 28.38,-10.6 28.38,-10.6 0,0 -10.37,-49.03 5.33,-74.5 6.16,-10 11.97,-18.62 31.92,-18.62 5.71,0 11.59,1.31 17.39,3.45 17.2,6.36 33.8,20.19 43.2,29.89 24,24.61 32.5,42.22 50.4,66.02 -0.7,1.1 0.2,2.75 1.8,4.62 42.5,11.49 87.3,26.93 129.9,80.14 -103.6,40.5 -191.5,135.03 -225.3,291.38 -12.33,57.08 -19.33,119.18 -20,184.81 -0.7,68.54 4.93,140.52 18.45,214.31 0.47,2.57 1.06,5.04 1.55,7.6 48.7,256.19 207.8,451.66 253.9,468.4 -14.3,32.87 -8.2,116.32 -119.8,162.39 -24,9.92 -98.6,14.36 -105.6,48.67 35.1,23.88 61.8,68.72 68.4,122.66 8.9,72.34 -21.6,137.2 -70.3,160.48 11.6,26.64 40.3,63.15 40.3,63.15 l -55.7,59.63 -11.2,-5.99 -60.72,-32.48 c 0,0 18.27,-52.19 18.14,-80.32 -47.96,-15.98 -83.64,-53.78 -91.83,-120.93 -4.01,-32.8 13.99,-83.86 51.47,-121.34 20.21,-20.21 24.23,-37.35 11.69,-49.89 -27.44,-27.44 -84.2,-20.71 -113.43,-63.28 -18.39,-26.79 -40.58,-88.75 -40.58,-88.75 -13.74,-27.88 -94.52,-221.52 -134.15,-289.79 -9.95,-17.15 -50.21,-80.59 -50.21,-80.59 0,0 -17.53,-12.07 -37.18,-27.87 -15.96,-12.84 -33.29,-28.09 -43.95,-41.7 -30.6,-39.1 -18.24,-109.19 0.44,-138.84 L 9272.4,3852.96 c -9.16,19.52 -13.54,30.41 -13.54,30.41 -66.08,161.28 -103.75,346.26 -103.75,542.83 0,601.72 352.44,1095.17 795.49,1130.43 h 46.35 56.25 c 48.9,-4.06 96.6,-13.77 142.9,-28.41 24.2,-7.67 48,-16.72 71.4,-27.12 336.6,-149.68 580.2,-574.8 580.2,-1074.9 0,-624.54 -379.7,-1132.61 -846.3,-1132.61 z M 12789,5249.41 c -5.1,17.27 -17,30.65 -31.8,38.34 -14.5,7.94 -31.9,10.35 -49,5.28 l -2.7,-0.81 c -73.7,-21.98 -150.7,-45 -226.4,-62.51 -37.9,-9.36 -75.6,-18.4 -113.3,-26.64 -37.6,-7.99 -74.7,-14.4 -115.4,-19.81 -79.2,-10.57 -158.9,-19.48 -238.3,-26.32 -51,-4.24 -103.3,-7.77 -154,-10.01 7.2,1.89 14.4,3.74 22,5.83 22.1,6.13 43.9,12.47 65.4,19.18 42.9,13.44 85.1,27.93 126.7,43.13 83.4,30.49 164.3,63.6 245.1,99.08 80.7,34.56 165.4,73.79 240.3,122.17 75.3,49.72 146.1,101.61 212.3,166.22 20.4,19.89 25.7,51.8 10.7,77.59 -6.7,11.66 -16.6,20.33 -27.9,25.68 -18.6,9.3 -41.2,9.45 -60.5,-1.71 l -2.6,-1.52 c -69.9,-40.31 -143.8,-81.78 -217.5,-117.12 -74.5,-36.53 -145.3,-71.34 -224.9,-98.48 -78.9,-27.63 -159.4,-53.43 -239.5,-75.83 -40.1,-11.17 -80.2,-21.57 -120.1,-30.67 l -26.7,-5.64 c 20.2,8.6 39.9,17.46 59.1,26.74 43.5,21.19 85.2,43.8 126.1,67.2 81.5,46.97 159.5,97.25 235.7,149.5 78.1,52.62 156,109.94 223.8,175.33 67.7,66.73 130.1,134.94 184.8,215.74 16.1,23.82 14.6,56.46 -5.6,78.66 -6.1,6.69 -13.4,11.67 -21.1,15.14 -22.7,10.83 -50.6,7.73 -70.3,-10.26 l -2.4,-2.15 c -62.5,-56.91 -129.9,-115.51 -198.5,-167.51 -68.9,-52.98 -136,-104.62 -211.4,-147.77 -14.1,-8.21 -28.4,-15.86 -42.6,-23.9 -62.7,-35.56 -125.9,-69.79 -189.7,-100.51 -12.4,-5.93 -24.7,-11.5 -37.1,-17.16 -23.3,-10.64 -46.6,-20.76 -69.8,-30.22 4.2,2.86 8.5,5.71 12.7,8.61 27.4,19.32 53.1,39.4 78.3,59.76 13.9,11.26 27.9,22.5 41.4,34 74.9,63.65 144.7,130.89 211.5,199.06 0.8,0.87 1.7,1.71 2.6,2.57 70.9,72.1 137.2,146.52 193.5,228.54 55.5,83.03 105.2,166.53 144.1,261.54 11,26.87 2.5,58.78 -22.3,76.21 -0.3,0.27 -0.8,0.28 -1.2,0.53 0,0.04 -0.1,0.09 -0.1,0.09 -28.8,20.31 -68.5,13.43 -88.8,-15.35 l -1.9,-2.68 c -51.2,-72.63 -107.6,-147.73 -166.9,-216.29 -17.7,-20.76 -35.5,-41.38 -53.4,-61.83 -42,-47.79 -85.1,-94.16 -131.9,-135.62 -23.5,-20.82 -47.2,-40.73 -71,-60.76 -43,-36.29 -86.3,-71.57 -130.6,-104.66 6.9,8.88 13.9,17.72 20.4,26.66 36.6,50.29 70.4,101.35 102.6,152.88 22.4,35.76 44.2,71.71 65.4,107.94 37.3,62.5 71.4,126.6 100.9,192.5 13.2,29.53 25.8,59.32 36.9,89.67 35.4,98.77 63.9,196.82 79,303.68 4.2,29.33 -12.8,58.55 -41.8,68.84 -0.1,0.04 -0.2,0.04 -0.3,0.08 -0.4,0.14 -0.6,0.44 -1,0.57 -33.1,11.76 -69.5,-5.59 -81.3,-38.72 l -1.1,-3.13 c -26.8,-75.79 -59.2,-153.72 -94.3,-228.86 -5.5,-11.94 -10.5,-24.37 -16.2,-36.12 -39.6,-81.47 -80.9,-161.56 -129.1,-236.87 -2.9,-4.45 -5.5,-9.07 -8.4,-13.49 -36.2,-53.12 -73.9,-104.67 -112.6,-154.91 -119.1,-132.72 -319.8,-265.54 -428.4,-318.34 -52.8,-25.68 -106.8,-60.87 -161,-87.38 -0.8,-0.41 -1.6,-0.89 -2.5,-1.29 -36.5,-17.69 -67.8,-46 -86.3,-82.13 -4.7,-9.18 -8.5,-18.86 -11.7,-28.76 -5.7,-17.52 -9.3,-36 -9.3,-55.46 0,-69.5 37.8,-136.16 94.7,-165.94 18.9,-10.15 39.9,-16.24 62.4,-16.9 3.8,-0.11 6.7,0.49 10,0.83 19.4,2.05 30.2,10.44 30.2,10.44 0,0 -15.2,40.79 8.1,59.15 3.8,2.54 7.9,4.7 12.1,6.61 10.8,4.86 22.7,7.72 35.2,7.72 11.8,0 22.9,-2.37 33.1,-6.64 30.3,-13.28 51.4,-43.35 51.4,-78.49 0,-43.51 -32.5,-78.99 -74.4,-84.61 -19,-7.47 -55.5,-8.64 -78.7,-8.64 -48.2,0 -95.2,5 -140.8,13.4 -62.8,11.55 -122.6,31.35 -178.5,56.96 -67.8,31.27 -192.4,122.61 -190.5,127.81 -128.2,119.04 -209.3,282.59 -216.3,463.55 -0.3,8.34 -1.3,16.51 -1.3,24.93 0,26.02 1.8,54.4 4.8,79.67 5.3,44.54 15.4,88.39 29.4,130.79 25,75.77 63,146.74 111.6,207.65 4.7,5.93 26.6,30.09 55,58.18 1.6,1.65 3.3,3.32 5,4.99 0.3,0.3 0.6,0.6 0.9,0.9 31.3,30.76 69.2,65.11 101.6,86.32 0,0.01 -0.1,0.02 -0.1,0.03 0.1,0.07 0.2,0.14 0.3,0.2 -2.2,1.4 -5.8,4.61 -9.3,8.07 -4.2,4.05 -8.4,8.46 -10.7,11.01 -59.1,5.75 -80,33.82 -90,57.62 -0.3,0.72 -0.5,1.45 -0.8,2.18 -0.8,1.89 -1.7,3.99 -2.2,5.62 -3.1,8.88 -3,35.75 -1.9,39.54 4.4,21.8 17.5,43.41 28.7,54.01 5.2,5.97 10.8,11.16 16.6,15.69 17.8,13.71 38,21.23 59.4,25.37 5.4,1.14 10.8,2.15 16.2,2.71 0.7,0.08 1.4,0.27 2.1,0.35 54.8,5.75 109,-18.02 130.7,-74.09 l 0.2,-0.4 c -3,-2.1 -34.7,-8.02 -34.7,-8.02 v 0.02 l -0.1,-0.02 c -11.3,24.1 -30,34.23 -51.9,32.58 -7.3,-0.57 -15,-2.44 -22.9,-5.54 -5.1,-2.02 -9.5,-4.67 -13.1,-7.82 -35.2,-29.94 -4.3,-105.7 44.5,-111.03 7.6,-0.8 15.7,0.1 24,3.18 0.3,0.1 0.6,0.23 0.9,0.33 21.4,8.48 157.4,41.14 239.3,54.04 15.6,2.48 29.6,4.31 40.1,5.01 0.3,0.18 0.6,0.38 0.9,0.56 0.1,0.03 0.1,0.08 0.1,0.12 0.1,0.03 0.1,0.06 0.2,0.09 14.1,22.98 14.7,174.09 -104.3,223.3 -94.1,38.89 -175.7,45.18 -249.6,45.27 -67,0.09 -127.8,-6.82 -190.2,-20.53 -242.2,-53.19 -389.6,-193.49 -524.6,-496.97 v -0.06 c -91.4,-179.4 -124.2,-351.48 -137.4,-398.81 0,0 -5.03,-0.05 -13.46,-0.17 -13.58,50.74 -46.35,221.91 -136.49,398.75 v 0.06 c -134.98,303.5 -283.1,443.81 -525.28,497.01 -62.4,13.7 -123.99,20.62 -190.95,20.53 -73.88,-0.1 -155.55,-6.38 -249.61,-45.27 -119.03,-49.22 -118.43,-200.34 -104.28,-223.32 0.31,-0.18 0.67,-0.38 0.97,-0.56 10.51,-0.7 24.43,-2.53 40.12,-5.01 81.84,-12.9 217.83,-45.56 239.24,-54.04 0.26,-0.1 0.64,-0.23 0.9,-0.33 8.32,-3.08 16.38,-3.98 24.02,-3.18 53.74,5.87 85.85,97.27 31.61,118.65 -7.88,3.1 -15.55,4.97 -22.87,5.54 -21.93,1.64 -40.62,-8.49 -51.87,-32.59 l -0.15,0.02 v -0.02 c 0,0 -33.42,6.25 -34.97,8.19 l 0.21,0.44 c 21.75,56.07 75.92,79.84 130.71,74.09 0.71,-0.08 1.37,-0.27 2.08,-0.35 5.45,-0.56 10.83,-1.57 16.21,-2.71 28.59,-5.52 55.03,-17.06 76.3,-41.27 11.19,-10.6 24.25,-32.21 28.71,-54.01 1.07,-3.79 1.21,-30.67 -1.88,-39.54 -0.56,-1.63 -1.48,-3.73 -2.22,-5.63 -0.3,-0.73 -0.56,-1.46 -0.87,-2.18 -9.91,-23.79 -30.9,-51.87 -89.94,-57.62 -2.29,-2.55 -6.51,-6.97 -10.69,-11.02 -3.57,-3.46 -7.12,-6.68 -9.35,-8.07 34.54,-22.62 75.35,-60.2 107.71,-92.43 28.36,-28.1 50.33,-52.32 55.06,-58.24 48.56,-60.93 86.55,-131.96 111.57,-207.73 14,-42.4 24.07,-86.38 29.36,-130.92 3.01,-25.27 4.88,-53.89 4.88,-79.91 0,-8.41 -1.04,-17.06 -1.36,-25.4 -0.58,-15.11 -1.75,-30.08 -3.35,-44.94 -16.07,-75.83 -49.9,-199 -112.55,-303.11 -3.22,-4.73 -6.43,-9.47 -9.77,-14.12 h 1.04 c -23.92,-37.45 -51.77,-71.93 -84.11,-100.18 1.89,-5.2 -122.69,-96.54 -190.53,-127.81 -55.85,-25.61 -115.69,-45.41 -178.42,-56.96 -45.59,-8.4 -92.61,-13.4 -140.82,-13.4 -23.17,0 -59.72,1.17 -78.69,8.64 -41.97,5.62 -74.46,41.1 -74.46,84.61 0,35.14 21.17,65.21 51.39,78.49 10.2,4.27 21.38,6.64 33.12,6.64 12.58,0 24.43,-2.86 35.19,-7.72 4.23,-1.91 8.33,-4.07 12.15,-6.61 23.27,-18.36 8.08,-59.15 8.08,-59.15 0,0 10.81,-8.39 30.23,-10.44 3.25,-0.34 6.18,-0.94 9.93,-0.83 22.52,0.66 43.55,6.75 62.47,16.9 56.85,29.78 94.67,96.44 94.67,165.94 0,19.46 -3.54,37.94 -9.29,55.46 -3.25,9.9 -7,19.58 -11.69,28.76 -18.47,36.13 -49.83,64.44 -86.35,82.13 -0.82,0.4 -1.64,0.88 -2.47,1.29 -54.15,26.51 -108.15,61.7 -161.01,87.38 -108.61,52.8 -309.32,185.62 -428.43,318.34 -38.63,50.24 -76.37,101.79 -112.54,154.91 -2.91,4.42 -5.53,9.04 -8.39,13.49 -48.22,75.31 -89.54,155.4 -129.1,236.87 -5.73,11.75 -10.69,24.18 -16.27,36.12 -35.07,75.14 -67.44,153.07 -94.29,228.86 l -1.08,3.13 c -11.76,33.13 -48.15,50.48 -81.29,38.72 -0.37,-0.13 -0.63,-0.43 -1.01,-0.57 -0.11,-0.04 -0.22,-0.04 -0.32,-0.08 -29.01,-10.29 -45.92,-39.51 -41.76,-68.84 15.07,-106.86 43.64,-204.91 79.01,-303.68 11.08,-30.35 23.67,-60.14 36.89,-89.67 29.5,-65.9 63.55,-130 100.91,-192.5 21.15,-36.23 42.95,-72.18 65.35,-107.94 32.27,-51.53 65.99,-102.59 102.63,-152.88 6.54,-8.94 13.54,-17.78 20.39,-26.66 -44.27,33.09 -87.63,68.37 -130.62,104.66 -23.72,20.03 -47.49,39.94 -70.95,60.76 -46.81,41.46 -89.94,87.83 -131.89,135.62 -17.95,20.45 -35.77,41.07 -53.44,61.83 -59.28,68.56 -115.71,143.66 -166.86,216.29 l -1.93,2.68 c -20.25,28.78 -60,35.66 -88.79,15.38 0,0 -0.07,-0.08 -0.12,-0.12 -0.38,-0.25 -0.83,-0.26 -1.21,-0.53 -24.73,-17.43 -33.27,-49.34 -22.26,-76.21 38.89,-95.01 88.56,-178.51 144.09,-261.54 56.3,-82.02 122.64,-156.44 193.52,-228.54 0.84,-0.86 1.75,-1.7 2.6,-2.57 66.82,-68.17 136.59,-135.41 211.43,-199.06 13.53,-11.5 27.5,-22.74 41.45,-34 25.21,-20.36 50.95,-40.44 78.33,-59.76 4.14,-2.9 8.42,-5.75 12.67,-8.61 -23.24,9.46 -46.51,19.58 -69.78,30.22 -12.37,5.66 -24.75,11.23 -37.11,17.16 -63.84,30.72 -127.04,64.95 -189.74,100.51 -14.18,8.04 -28.5,15.69 -42.62,23.9 -75.34,43.15 -142.5,94.79 -211.35,147.77 -68.64,52 -135.96,110.6 -198.47,167.51 l -2.42,2.15 c -19.69,17.99 -47.57,21.09 -70.28,10.26 -7.77,-3.47 -14.99,-8.45 -21.1,-15.14 -20.21,-22.2 -21.73,-54.84 -5.64,-78.66 54.73,-80.8 117.1,-149.01 184.8,-215.74 67.83,-65.39 145.67,-122.71 223.83,-175.33 76.23,-52.25 154.16,-102.53 235.71,-149.5 40.82,-23.4 82.54,-46.01 126.09,-67.2 19.13,-9.28 38.84,-18.14 59.03,-26.74 l -26.66,5.64 c -39.89,9.1 -80.04,19.5 -120.1,30.67 -80.08,22.4 -160.56,48.2 -239.52,75.83 -79.54,27.14 -150.32,61.95 -224.86,98.48 -73.73,35.34 -147.63,76.81 -217.47,117.12 l -2.6,1.52 c -19.29,11.16 -41.97,11.01 -60.52,1.71 -11.32,-5.35 -21.21,-14.02 -27.95,-25.68 -14.93,-25.79 -9.7,-57.7 10.69,-77.59 66.21,-64.61 136.99,-116.5 212.37,-166.22 74.85,-48.38 159.54,-87.61 240.28,-122.17 80.8,-35.48 161.73,-68.59 245.11,-99.08 41.63,-15.2 83.74,-29.69 126.71,-43.13 21.51,-6.71 43.24,-13.05 65.37,-19.18 7.57,-2.09 14.78,-3.94 22.03,-5.83 -50.75,2.24 -102.99,5.77 -153.98,10.01 -79.41,6.84 -159.12,15.75 -238.36,26.32 -40.73,5.41 -77.8,11.82 -115.4,19.81 -37.64,8.24 -75.38,17.28 -113.25,26.64 -75.7,17.51 -152.78,40.53 -226.42,62.51 l -2.73,0.81 c -17.05,5.07 -34.53,2.66 -48.99,-5.28 -14.81,-7.69 -26.65,-21.07 -31.79,-38.34 -8.41,-28.29 3.71,-57.82 27.67,-72.62 74.54,-45.93 150.55,-79.69 230.4,-110.73 78.65,-30 166.24,-49.36 246.72,-66.04 81.24,-17.65 162.62,-33.57 244.84,-47.43 73.96,-12.17 145.87,-22.96 223.21,-30.9 -46.96,-5.61 -94.28,-11 -141.4,-15.66 -75.83,-7.43 -151.88,-13.73 -227.89,-18.6 -18.91,-1.43 -37.65,-2.06 -57.19,-2.77 l -54.5,-0.94 -110.35,2.1 c -73.91,0.8 -150,5.99 -223.38,10.01 l -2.5,0.1 c -13.25,0.72 -25.78,-2.67 -36.36,-9.03 -18.25,-10.41 -31.06,-29.48 -32.26,-51.99 -1.57,-29.15 16.72,-54.86 43.1,-63.94 78.02,-26.78 155.1,-42.74 235.05,-55.8 39.88,-5.81 80.2,-9.52 120.94,-11.22 20.34,-0.98 40.82,-1.48 61.3,-1.74 l 58.66,-0.81 c 78.43,-1.7 156.8,-2.05 235.18,-1.08 54.33,0.63 66.14,0.73 120.59,2.65 l 7.19,-23.73 c -89.7,-28.18 -150.9,-46.49 -241.31,-71.79 -70.37,-19.85 -137.08,-32.96 -206.48,-47.31 -68.72,-15.42 -140.08,-27.81 -209.11,-42.03 l -1.92,-0.49 c -4.72,-0.97 -9.16,-2.52 -13.38,-4.41 -27.57,-11.63 -44.01,-41.44 -37.72,-71.81 5.85,-28.38 29.65,-48.42 57.09,-50.92 77.05,-6.8 151.35,-4.75 227.5,0 75.65,5.14 152.19,22.13 224.27,35.59 72.74,13.46 179.57,38.78 251.6,53.85 l 5.72,-18.13 c -29.91,-17.12 -94.79,-51.64 -124.75,-68.23 -29.94,-16.63 -59.9,-31.67 -89.92,-46.34 -29.67,-14.48 -59.4,-28.61 -89.24,-43.54 l -0.2,-0.1 c -0.39,-0.19 -0.76,-0.37 -1.14,-0.56 -59.95,-31.03 -122.02,-60.63 -181.8,-92.99 l -1.07,-0.58 c -31.16,-16.82 -42.74,-55.76 -25.89,-86.97 13.65,-25.18 41.76,-37.56 68.5,-32.42 70.73,13.51 137.85,33.54 205.67,55.31 67.42,22.45 132.88,53.83 196.96,81.83 17.03,7.46 84.12,36.31 101.07,43.83 l 11.63,-53.4 c -10.46,-7.31 -48.01,-33.54 -48.19,-33.68 l -74.04,-64.12 c -48.78,-43.5 -94.34,-91.04 -137.49,-141.69 -23.2,-27.19 -20.07,-67.97 7.12,-91.13 20.56,-17.58 49.09,-19.7 71.76,-7.9 0.3,0.16 0.58,0.34 0.88,0.5 0.14,0.07 0.3,0.08 0.45,0.16 59.19,30.76 115.49,65.19 168.78,103.51 l 56.35,32.96 c 0.21,-1.26 30.99,-186.4 39.08,-263.15 25.2,-239.22 18.04,-514.38 43.87,-546.55 21.57,-26.87 64.47,-20.76 103,-21.94 -2.6,9.16 -3.87,17.67 -5.81,26.52 -0.09,0.93 0.22,1.79 0.01,2.72 -27.62,128.19 10.48,222.76 34.08,261.41 0.39,0.65 0.21,1.41 0.54,2.06 0.52,0.83 2.73,8.56 2.64,10.18 -8.35,152.11 -28.76,397.49 -63.15,588.02 -54.81,303.75 -146.79,790.26 -172.89,928.03 -1.55,8.19 1.36,15.58 6.48,20.75 5.73,5.1 13.83,7.62 22.33,5.47 93.18,-23.55 246.28,-37.31 345.12,-43.81 73.84,-4.86 250.01,-4.34 431.56,51.37 -76.96,-181.55 -120.83,-389.81 -120.83,-611.12 0,-433.86 168.43,-817.56 424.92,-1047.74 -30.36,-4.79 -52.88,-9.08 -59.22,-11.3 -66.03,-23.13 -117.84,-56.49 -146.91,-73.38 -0.69,-0.39 -1.21,-1.08 -1.86,-1.54 -1.91,-0.9 -4.08,-1.76 -5.75,-2.69 -10.03,-5.58 -10.63,-16.9 -8.22,-28.11 6.75,-31.42 24.18,-70.54 41.25,-93.7 3.77,-5.13 7.51,-10.08 13.87,-10.4 239.87,-11.96 416.23,-30.19 557.58,-119.83 0.63,-0.44 1.25,-0.8 1.88,-1.25 3.89,-2.41 7.42,-5.41 11.26,-7.96 66.76,-52.58 93.68,-161.45 39.21,-238.93 -18.73,-19.27 -38.22,-37.92 -57.54,-55.72 -65.72,-56.67 -137.03,-104.92 -211.95,-141.1 -74.95,-36.5 -153.27,-59.21 -232.67,-70.71 -79.9,-14.58 -159.61,-25.21 -263.88,-49.85 l -0.63,-0.18 c -3.42,-0.81 -6.5,-2.3 -9.15,-4.26 -8.65,-5.64 -13.41,-16.07 -10.92,-26.71 1.03,-4.38 3.22,-8.27 6.05,-11.41 76.53,-82.62 189.65,-115.35 298.71,-109.27 82.51,6.41 162.55,30.08 235.81,65.14 24.46,11.65 48.19,24.55 70.98,38.53 90.91,56.16 168.97,129.3 227.99,215.46 1.22,1.75 2.38,3.61 3.55,5.44 -0.24,-0.94 -0.48,-1.88 -0.72,-2.82 -13.37,-46.59 -57.77,-168.81 -93.32,-209.7 -35.94,-41.34 -68.86,-80.93 -106.82,-112.05 -28.38,-23.21 -58.15,-42.96 -91.26,-59.55 -10.88,-5.4 -22.09,-10.49 -33.77,-15.22 -47.84,-19.85 -102.85,-32.68 -167.5,-46.59 l -0.62,-0.14 c -3.26,-0.7 -6.21,-2.07 -8.78,-3.91 -8.29,-5.17 -13.03,-14.97 -10.86,-25.09 1.3,-6.03 4.7,-11.13 9.35,-14.39 57.49,-40.83 130.03,-59.91 205.23,-55.44 38.1,2.28 76.12,11.49 112.03,26.24 35.53,14.44 68.98,34.4 98.26,58.74 9.82,8.06 17.68,17.08 26.48,26.05 16.56,-33.02 34.09,-66.04 46.81,-98.91 16.77,-39.26 30.09,-78.57 51.66,-117.82 4.83,-8.79 15.61,-12.88 19.8,-12.14 0,-0.74 16.91,3.35 21.71,12.14 21.6,39.25 36.8,78.56 53.6,117.82 12.7,32.87 30.2,65.89 46.8,98.91 8.8,-8.97 16.6,-17.99 26.5,-26.05 29.2,-24.34 62.7,-44.3 98.2,-58.74 35.9,-14.75 74,-23.96 112,-26.24 75.2,-4.47 147.8,14.61 205.3,55.44 4.6,3.26 8,8.36 9.3,14.39 2.2,10.12 -2.5,19.92 -10.8,25.09 -2.6,1.84 -5.5,3.21 -8.8,3.91 l -0.6,0.14 c -64.7,13.91 -119.7,26.74 -167.5,46.59 -11.7,4.73 -22.9,9.82 -33.8,15.22 -33.1,16.59 -62.9,36.34 -91.3,59.55 -37.9,31.12 -70.8,70.71 -106.8,112.05 -35.5,40.89 -79.9,163.11 -93.3,209.7 -0.2,0.94 -0.5,1.88 -0.7,2.82 1.2,-1.83 2.3,-3.69 3.5,-5.44 59,-86.16 137.1,-159.3 228,-215.46 22.8,-13.98 46.5,-26.88 71,-38.53 73.3,-35.06 153.3,-58.73 235.8,-65.14 109.1,-6.08 222.2,26.65 298.7,109.27 2.8,3.14 5,7.03 6.1,11.41 2.5,10.64 -2.3,21.07 -10.9,26.71 -2.7,1.96 -5.8,3.45 -9.2,4.26 l -0.6,0.18 c -104.3,24.64 -184,35.27 -263.9,49.85 -79.4,11.5 -157.7,34.21 -232.7,70.71 -74.9,36.18 -146.2,84.43 -211.9,141.1 -19.3,17.8 -38.8,36.45 -57.6,55.72 -54.4,77.48 -27.5,186.35 39.2,238.93 3.9,2.55 7.4,5.55 11.3,7.96 0.6,0.45 1.3,0.81 1.9,1.25 141.3,89.64 317.7,107.87 557.5,119.83 6.4,0.32 10.1,5.27 13.9,10.4 17.1,23.16 34.5,62.28 41.2,93.7 2.4,11.21 1.8,22.53 -8.3,28.11 -1.6,0.93 -3.9,1.79 -5.8,2.69 -0.7,0.46 -1.4,1.15 -2.1,1.54 -29.1,16.89 -81.4,50.25 -147.4,73.38 -6.1,2.12 -28,6.16 -56.4,10.69 256.9,230.09 425.8,614.02 425.8,1048.35 0,221.24 -44.4,429.01 -121.3,610.49 180.7,-55 355.7,-55.58 429.3,-50.74 98.8,6.5 251.9,20.26 345.1,43.81 8.5,2.15 16.6,-0.37 22.3,-5.47 5.1,-5.17 8,-12.56 6.5,-20.75 -26.1,-137.77 -118.1,-624.28 -172.9,-928.03 -34.4,-190.53 -54.8,-435.91 -63.1,-588.02 -0.1,-1.62 2.1,-9.35 2.6,-10.18 0.3,-0.65 0.1,-1.41 0.5,-2.06 23.6,-38.65 61.7,-133.22 34.1,-261.41 -0.2,-0.93 0.1,-1.79 0,-2.72 -1.9,-8.85 -3.2,-17.36 -5.8,-26.52 38.5,1.18 81.4,-4.93 103,21.94 25.8,32.17 18.7,307.33 43.9,546.55 8.1,76.75 38.9,261.89 39.1,263.15 l 56.3,-32.96 c 53.3,-38.32 109.6,-72.75 168.8,-103.51 0,0 0.3,-0.09 0.5,-0.16 0.3,-0.16 0.5,-0.34 0.8,-0.5 22.7,-11.8 51.2,-9.68 71.8,7.9 27.2,23.16 30.3,63.94 7.1,91.13 -43.1,50.65 -88.7,98.19 -137.5,141.69 l -74,64.12 c -0.2,0.14 -37.7,26.37 -48.2,33.68 l 11.6,53.4 c 17,-7.52 84.1,-36.37 101.1,-43.83 64.1,-28 129.5,-59.38 196.9,-81.83 67.9,-21.77 135,-41.8 205.7,-55.31 26.8,-5.14 54.9,7.24 68.5,32.42 16.9,31.21 5.3,70.15 -25.9,86.97 l -1,0.58 c -59.8,32.36 -121.9,61.96 -181.8,92.99 -0.4,0.19 -0.8,0.37 -1.2,0.56 l -0.2,0.1 c -29.8,14.93 -59.6,29.06 -89.2,43.54 -30,14.67 -60,29.71 -89.9,46.34 -30,16.59 -94.9,51.11 -124.8,68.23 l 5.7,18.13 c 72.1,-15.07 178.9,-40.39 251.6,-53.85 72.1,-13.46 148.6,-30.45 224.3,-35.59 76.1,-4.75 150.5,-6.8 227.5,0 27.4,2.5 51.2,22.54 57.1,50.92 6.3,30.37 -10.2,60.18 -37.7,71.81 -4.3,1.89 -8.7,3.44 -13.4,4.41 l -1.9,0.49 c -69.1,14.22 -140.4,26.61 -209.1,42.03 -69.4,14.35 -136.1,27.46 -206.5,47.31 -90.4,25.3 -151.6,43.61 -241.3,71.79 l 7.2,23.73 c 54.4,-1.92 66.2,-2.02 120.6,-2.65 78.3,-0.97 156.7,-0.62 235.1,1.08 l 58.7,0.81 c 20.5,0.26 41,0.76 61.3,1.74 40.7,1.7 81,5.41 120.9,11.22 80,13.06 157.1,29.02 235.1,55.8 26.4,9.08 44.6,34.79 43.1,63.94 -1.2,22.51 -14,41.58 -32.3,51.99 -10.6,6.36 -23.1,9.75 -36.3,9.03 l -2.5,-0.1 c -73.4,-4.02 -149.5,-9.21 -223.4,-10.01 l -110.4,-2.1 -54.5,0.94 c -19.5,0.71 -38.2,1.34 -57.2,2.77 -76,4.87 -152,11.17 -227.9,18.6 -47.1,4.66 -94.4,10.05 -141.4,15.66 77.4,7.94 149.3,18.73 223.3,30.9 82.2,13.86 163.6,29.78 244.8,47.43 80.5,16.68 168.1,36.04 246.7,66.04 79.9,31.04 155.9,64.8 230.4,110.73 24,14.8 36.1,44.33 27.7,72.62"
         style="fill:#040606;fill-opacity:1;fill-rule:nonzero;stroke:none"
         transform="matrix(0.13333333,0,0,-0.13333333,0,1440)" />
      <path
         id="path29"
         d="m 9759.02,8477.33 c 3.59,0 5.84,1.26 8.56,1.67 11.68,-19.6 32.12,-33.38 57.04,-33.38 h 0.61 c 24.52,0 45.44,13.31 57.12,33.38 h 89.37 v -58.54 c -57.18,-13.69 -100.03,-65.65 -100.03,-126.87 0,-32.74 13.12,-62.6 32.62,-85.31 -21.3,-7.78 -40.95,-19.31 -57.92,-34.54 -51.57,-49.54 -64.46,-153.89 -20.31,-277.44 30.66,-85.3 76.03,-155.79 119.08,-197.4 19.59,-21.09 39.18,-30.44 56.94,-30.44 h 4.6 c 17.7,0 37.3,9.35 56.9,30.44 43.1,41.61 88.4,112.1 119.1,197.4 44.1,123.55 31.2,227.99 -20.3,277.52 -17.4,15.61 -37.6,27.37 -59.5,35.12 19.2,22.64 31.8,52.61 31.8,84.65 0,61.22 -42.4,113.18 -99.5,126.87 V 8479 h 90 c 10.5,-20.07 32.1,-33.38 56.5,-33.38 h 0.8 c 25.1,0 46.8,14.13 57.9,35.62 2.5,-0.85 4.9,-1.8 7.3,-1.8 17.3,0 31.4,13.89 31.4,31.27 0,16.99 -14.1,31.31 -31.4,31.31 -2.1,0 -4.7,-0.84 -7,-1.26 -11.3,20.92 -33.1,35.69 -58.2,35.69 h -0.8 c -24.4,0 -46,-13.38 -56.5,-33.61 h -90 v 118.45 c 20.5,11.67 33.4,32.12 33.4,57.17 0,25.95 -14.7,47.85 -35.9,58.48 1.4,3.26 1.9,6.32 1.9,9.88 0,16.98 -14,31.27 -31.1,31.27 -16.97,0 -31.37,-14.29 -31.37,-31.27 0,-3.56 0.89,-6.62 2.31,-9.88 -21.87,-10.63 -36.54,-32.53 -36.54,-58.48 0,-25.05 13.31,-45.5 33.82,-57.17 v -118.45 h -89.37 c -11.68,20.23 -32.6,33.61 -57.12,33.61 h -0.61 c -25.8,0 -48.76,-15.58 -58.81,-37.48 -2.31,0 -4.62,0.82 -6.79,0.82 -16.91,0 -31.18,-13.35 -31.18,-31.28 0,-17.05 14.27,-31.18 31.18,-31.18"
         style="fill:#040606;fill-opacity:1;fill-rule:nonzero;stroke:none"
         transform="matrix(0.13333333,0,0,-0.13333333,0,1440)" />
      <path
         id="path30"
         d="m 10582.6,4356.5 c -1.9,0.84 -3.9,1.51 -6.1,1.89 -3.5,0.6 -7.2,0.26 -11.1,-0.39 -5.2,-1.06 -10.6,-3.41 -15.2,-7.06 l -42.8,-37.84 c 5.2,0.75 11.2,1.18 17.6,1.89 14.8,1.38 32.3,2.95 45.8,7.19 12.6,3.91 21.5,10.26 20.9,20.73 -0.3,7.95 -5.1,11.74 -9.1,13.59"
         style="fill:#040606;fill-opacity:1;fill-rule:nonzero;stroke:none"
         transform="matrix(0.13333333,0,0,-0.13333333,0,1440)" />
      <path
         id="path31"
         d="m 10592.6,4338.27 c -13.4,13.13 -29.6,18.28 -43.2,18.06 8,16.5 12.9,39.74 7.4,56.05 -1.7,4.71 -4.2,9.26 -7.6,13.09 v 0.01 c -18.8,23.88 -34.7,29.67 -42.3,31.29 -5.2,1.09 -30.3,3.7 -43.3,-13.39 l -2.1,21.31 c -10,-8.53 -19.9,-35.9 -22.2,-42.85 -5.4,-16.26 -16.2,-57.15 -16.2,-57.15 31.1,49.2 47.9,55.27 74.7,62.15 -23.1,-16.12 -41.8,-53.38 -52.6,-87.19 l 61.8,41.5 -13.8,9.6 c 7.5,12.1 15.1,17.6 28.7,9.64 4.6,-2.72 7.7,-7.61 8.7,-14.87 0.7,-5.32 0.7,-19.08 -11.9,-35.11 v 0 l -111.7,-96.35 c -8.4,-6.96 -11.2,-14.21 -10.5,-36.92 0.3,-7.63 8.2,-16.03 22.4,-2.97 l 119.8,106.87 c 5.8,4.75 14.5,0.57 17.2,-3.27 7,-10.1 3,-31.14 -15,-57.91 l -10.2,22.93 c -10.1,-13.66 -28.9,-47.91 -44.7,-65.17 0,0 31.4,-2.64 55.8,15.99 6.7,5.1 12.5,10.19 17.4,15.21 -19.9,-51.04 -65.2,-86.98 -65.7,-87.31 0,0 31,3.07 47.6,11.82 17.2,9.02 33.6,19.58 47.3,35.63 l -22.8,7.4 c 11.4,15.66 29.4,34.91 36.6,66.63 5.7,24.92 2.5,43.52 -9.6,55.28"
         style="fill:#040606;fill-opacity:1;fill-rule:nonzero;stroke:none"
         transform="matrix(0.13333333,0,0,-0.13333333,0,1440)" />
      <path
         id="path32"
         d="m 10337.5,4332.32 15,74.98 -20.2,-15.74 c 0,0 -15,20.63 -19.7,25.95 -19.4,21.81 -39.2,31 -58.6,27.17 -22.1,-4.32 -27.4,-19.57 -54.4,-12.4 1.1,-20.6 -19.6,-28.83 -31.4,-45.3 -11.5,-16.09 -11.3,-37.85 0.4,-64.58 2.9,-6.51 16.5,-28.95 16.5,-28.95 l -25.6,-7.99 80.8,-23.71 c 0,8.4 -9.2,62.86 -9.2,62.86 l -18.6,-13.81 c -7.4,9.26 -10.5,15.66 -15.2,23.84 -7.6,13.03 -12.5,23.13 -8.6,32.16 3.4,7.89 16.5,8.81 23,9.56 l 90.6,-142.37 c 4.4,-8.63 12.9,-8.88 15.8,-3.27 8.5,16.92 9,36.28 4.8,40.88 l -80.5,123.65 c 3.2,6.23 12.4,13.82 19,15.05 11.3,2.1 16.4,-1.16 27.3,-10.72 7.4,-6.42 14.7,-17.56 17.9,-21.91 l -21.3,-8.22 c 15.9,-10.82 43.4,-29.72 52.2,-37.13"
         style="fill:#040606;fill-opacity:1;fill-rule:nonzero;stroke:none"
         transform="matrix(0.13333333,0,0,-0.13333333,0,1440)" />
      <path
         id="path33"
         d="m 10353,4588.43 c 12,-17.62 33.4,-39.72 43.3,-48.74 0,0 -14.1,-17.37 -16.1,-20.84 -8.6,-14.85 28.4,-20.2 31.1,-20.72 4.4,-0.64 39.4,-8.18 36.4,8.73 -0.7,3.95 -10.3,24.03 -10.3,24.03 12.4,5.06 42.5,19.52 59.8,31.95 2.3,1.64 7.7,5.72 9.7,8.17 33.8,41.79 22.2,68.19 22.2,68.19 l -62.7,-39.14 c -5.6,-3.71 -8.9,-0.08 -8.9,-0.08 5.4,3.12 13.3,22.07 14.8,26.93 2.3,7.71 -0.2,13.17 -9.5,15.04 -8.2,1.67 -12.5,-1.15 -12.5,-1.15 2,3.42 1.8,3.12 2.6,4.68 0.3,0.62 0.6,1.21 0.9,1.88 0.5,1.14 0.7,2.13 0.9,3.47 0.1,0.27 -0.1,0.43 -0.1,0.68 0.1,0.44 0.3,0.81 0.3,1.26 0,8.84 -7.2,15.99 -16.1,15.99 -7,-0.01 -12.9,-4.7 -14.9,-11.09 -0.3,-0.41 -0.6,-0.68 -0.8,-1.23 -0.6,-3.34 -0.9,-1.27 0.7,-10.59 0,0 -3,3.76 -11.3,5.03 -9.3,1.43 -11.7,-2.44 -12.2,-10.48 -0.3,-5.07 -1.6,-20.58 2.8,-30.76 0.2,-0.55 -4.4,-2.26 -8.4,3.15 l -45.4,58.33 c 0,0 -20,-20.79 -2.6,-71.67 1,-2.98 4.7,-8.68 6.3,-11.02"
         style="fill:#040606;fill-opacity:1;fill-rule:nonzero;stroke:none"
         transform="matrix(0.13333333,0,0,-0.13333333,0,1440)" />
      <path
         id="path34"
         d="m 10165.3,3993.08 c -9.1,0 -16.5,7.41 -16.5,16.55 0,9.13 7.4,16.54 16.5,16.54 9.2,0 16.6,-7.41 16.6,-16.54 0,-9.14 -7.4,-16.55 -16.6,-16.55 z m 121.9,108.79 c 6.7,6.72 11.3,15.32 13.1,24.68 l 3.5,18.28 c 1.9,10.32 -9.4,15.79 -17.2,8.72 l -105.1,-99.86 -2.8,-2.6 c -2.6,1.01 -5.1,1.75 -7.9,2.09 -4.6,0.57 -9.3,0.15 -13.6,-1.29 -4.9,-1.51 -9.4,-4.18 -13.5,-7.9 -15.7,-14.37 -18.7,-40.55 -6.8,-58.45 5.8,-8.72 14.4,-14.27 24.2,-15.47 7.8,-0.95 15.4,0.93 22,5.32 1.8,1.19 3.4,2.39 5.1,3.87 9.6,8.66 17.6,25.43 13.2,39.78 l 85.8,82.83"
         style="fill:#040606;fill-opacity:1;fill-rule:nonzero;stroke:none"
         transform="matrix(0.13333333,0,0,-0.13333333,0,1440)" />
      <path
         id="path35"
         d="m 10479.3,3957.92 c -9.1,0 -16.5,7.4 -16.5,16.54 0,9.14 7.4,16.54 16.5,16.54 9.1,0 16.6,-7.4 16.6,-16.54 0,-9.14 -7.5,-16.54 -16.6,-16.54 z m 5.3,57.83 c -3.9,0.47 -7.9,0.09 -11.7,-0.89 l -77.8,122.34 c -5.6,8.53 -15.3,7.11 -17.1,-2.91 l -2.9,-10.39 c -2.3,-12.62 -4.4,-12.92 8.4,-37.46 l 62.5,-95.5 c -6,-14.46 -5.1,-31.79 3.6,-44.87 6.1,-8.99 14.9,-14.7 25,-15.93 10,-1.24 19.9,2.19 27.9,9.46 0.1,0.13 0.3,0.39 0.4,0.52 15.8,15.01 18.8,41.56 6.6,59.69 -6.1,9 -14.9,14.71 -24.9,15.94"
         style="fill:#040606;fill-opacity:1;fill-rule:nonzero;stroke:none"
         transform="matrix(0.13333333,0,0,-0.13333333,0,1440)" />
      <path
         id="path36"
         d="m 10313.3,3887.36 c 22.9,123.38 82.7,444.56 83.2,447.72 4.5,26.03 18.6,95.54 22.3,134.91 2.2,14.81 -21.8,24.01 -27.1,3.08 -7.2,-28.62 -24.2,-102.34 -29.8,-131.02 l -0.2,0.03 c 0,0 -65,-324.17 -89.7,-448.45 -1.4,-7.33 -5.1,-13.73 -9.5,-19.82 -3,-4.18 -5.1,-9.18 -6,-14.73 -2.9,-17.8 7.7,-34.35 23.8,-36.95 16,-2.61 31.3,9.7 34.2,27.5 0.7,4.14 0.6,8.2 -0.1,12.03 -1.6,8.58 -2.7,17.12 -1.1,25.7"
         style="fill:#040606;fill-opacity:1;fill-rule:nonzero;stroke:none"
         transform="matrix(0.13333333,0,0,-0.13333333,0,1440)" />
      <path
         id="path37"
         d="m 10494.4,4043.16 -81.6,-61.19 c -3.7,-2.78 -9,-2.03 -11.8,1.69 l -5.3,7.05 c -2.8,3.71 -2,8.98 1.7,11.77 l 81.7,61.19 c 3.7,2.78 8.9,2.03 11.7,-1.69 l 5.3,-7.05 c 2.8,-3.71 2,-8.99 -1.7,-11.77"
         style="fill:#040606;fill-opacity:1;fill-rule:nonzero;stroke:none"
         transform="matrix(0.13333333,0,0,-0.13333333,0,1440)" />
    </g>
  </g>
</svg>
