<?xml version="1.0" encoding="UTF-8" standalone="no"?>
<!-- Created with Inkscape (http://www.inkscape.org/) -->

<svg
   width="113.18431mm"
   height="81.494743mm"
   viewBox="0 0 113.18431 81.494743"
   version="1.1"
   id="svg1"
   xml:space="preserve"
   inkscape:version="1.3.2 (091e20ef0f, 2023-11-25, custom)"
   sodipodi:docname="YDR_Logo_black.svg"
   xmlns:inkscape="http://www.inkscape.org/namespaces/inkscape"
   xmlns:sodipodi="http://sodipodi.sourceforge.net/DTD/sodipodi-0.dtd"
   xmlns="http://www.w3.org/2000/svg"
   xmlns:svg="http://www.w3.org/2000/svg"><sodipodi:namedview
     id="namedview1"
     pagecolor="#ffffff"
     bordercolor="#000000"
     borderopacity="0.25"
     inkscape:showpageshadow="2"
     inkscape:pageopacity="0.0"
     inkscape:pagecheckerboard="0"
     inkscape:deskcolor="#d1d1d1"
     inkscape:document-units="mm"
     inkscape:zoom="0.78038721"
     inkscape:cx="180.67954"
     inkscape:cy="424.78913"
     inkscape:window-width="1914"
     inkscape:window-height="1011"
     inkscape:window-x="0"
     inkscape:window-y="0"
     inkscape:window-maximized="0"
     inkscape:current-layer="layer1" /><defs
     id="defs1" /><g
     inkscape:label="Слой 1"
     inkscape:groupmode="layer"
     id="layer1"
     transform="translate(-25.608198,-33.103068)"><path
       style="fill:#000000;stroke-width:0.191031"
       d="m 38.405062,94.513622 0.01696,-20.065839 9.990798,-0.01706 9.990798,-0.01708 v 20.0829 20.082907 H 48.39586 38.388103 Z m 21.211602,0.02999 c 0,-11.029795 0.02274,-20.066497 0.05054,-20.081564 0.0278,-0.01507 0.505438,-0.0032 1.061417,0.0264 6.425044,0.341884 12.343629,3.843709 15.844741,9.374795 0.595841,0.941316 1.499889,2.79611 1.880694,3.858535 1.486614,4.147583 1.55874,8.765046 0.202447,12.960472 -1.058716,3.27494 -3.132764,6.46585 -5.662748,8.7121 -3.571788,3.17123 -7.742512,4.8806 -12.585244,5.15806 l -0.791851,0.0454 z m 21.22834,0.815777 c 0,-10.571041 0.02563,-19.191261 0.05696,-19.15605 0.08089,0.09092 22.030576,38.115321 22.084646,38.258191 0.0424,0.11202 -0.51153,0.11793 -11.048482,0.11793 H 80.845004 Z M 117.13535,114.5014 c -2.23507,-0.17856 -4.5761,-0.77959 -6.63363,-1.70311 -3.17939,-1.42708 -6.06298,-3.79752 -8.12821,-6.68175 -4.806011,-6.711909 -4.96135,-15.753324 -0.3893,-22.658351 1.249,-1.886328 2.91207,-3.652663 4.71501,-5.007786 1.86068,-1.398515 4.23802,-2.58149 6.49373,-3.231313 2.98014,-0.858517 6.45059,-0.992959 9.53109,-0.369229 3.03647,0.614812 5.99492,1.994661 8.47419,3.952429 0.82348,0.650262 2.53571,2.350945 3.18112,3.159659 3.24261,4.063103 4.81646,9.287588 4.32466,14.355883 -0.40131,4.135658 -1.90502,7.777038 -4.52166,10.949648 -0.63716,0.77253 -2.11785,2.24348 -2.86169,2.84284 -3.97793,3.20535 -9.11655,4.79601 -14.18531,4.39108 z M 92.049578,93.04161 c -0.139399,-0.242478 -2.606252,-4.510115 -5.481892,-9.483647 -2.875645,-4.973534 -5.216553,-9.065532 -5.202021,-9.093331 0.03755,-0.07182 7.845943,-0.0598 8.77937,0.01352 1.383021,0.108636 2.378305,0.378188 3.605453,0.976463 2.923249,1.425186 4.955751,4.264359 5.36173,7.489711 0.100981,0.802255 0.04597,2.431705 -0.105578,3.128497 -0.16387,0.753308 -0.528095,1.801586 -0.846501,2.436289 -1.087503,2.167829 -3.13102,3.993961 -5.369253,4.798084 l -0.487857,0.17527 z M 38.38882,64.423291 38.389393,55.64554 44.899424,44.374304 51.409457,33.103068 h 9.901608 9.901688 l -0.0808,0.151631 c -0.04443,0.0834 -1.709939,2.971968 -3.701116,6.419045 -1.991175,3.447078 -4.836873,8.374031 -6.323774,10.948783 l -2.703451,4.681368 v 8.948573 8.948572 H 48.395971 38.388324 Z m 21.781804,8.626117 c 0.05374,-0.0834 0.675054,-1.152395 1.380686,-2.375551 3.35985,-5.824036 8.056307,-13.952031 8.071431,-13.968945 0.01183,-0.01324 9.21937,15.895983 9.517967,16.445585 0.01511,0.0278 -4.268973,0.05054 -9.520172,0.05054 h -9.547632 z m 15.31381,-8.693509 c -2.80783,-4.864828 -5.112681,-8.860304 -5.121886,-8.878837 -0.03112,-0.06263 12.469923,-21.650485 12.537896,-21.6515 0.04601,-6.87e-4 20.813876,35.836412 22.750036,39.257542 0.0634,0.112138 -0.55103,0.117936 -12.497073,0.117936 H 80.589584 Z M 37.738007,54.117295 c -0.03151,-0.04856 -2.773611,-4.789048 -6.093553,-10.534413 l -6.036256,-10.446118 6.086803,-0.0172 c 3.347741,-0.0095 8.831215,-0.0095 12.1855,0 l 6.098699,0.0172 -6.071514,10.513081 c -3.339333,5.782195 -6.08071,10.522681 -6.09195,10.534414 -0.01124,0.01173 -0.04622,-0.0184 -0.07773,-0.06696 z"
       id="path1" /></g></svg>
